<svg xmlns="http://www.w3.org/2000/svg" xmlns:xlink="http://www.w3.org/1999/xlink" viewBox="0 0 579.07 414.26">
  <defs>
    <style>
      .a {
        fill: #f8f8f8;
      }

      .b {
        fill: url(#a);
      }

      .c, .d {
        fill: #fff;
      }

      .d {
        opacity: 0.04;
      }

      .d, .f, .g, .h, .n {
        isolation: isolate;
      }

      .e, .g {
        fill: #5a5773;
      }

      .f, .i {
        fill: #5fc273;
      }

      .f {
        opacity: 0.2;
      }

      .g, .h, .n, .o {
        opacity: 0.1;
      }

      .j {
        fill: url(#b);
      }

      .k {
        fill: #c37098;
      }

      .l {
        fill: #3f3d56;
      }

      .m, .s {
        fill: none;
      }

      .n {
        stroke: #6c63ff;
      }

      .n, .s {
        stroke-miterlimit: 10;
      }

      .p {
        fill: #535461;
      }

      .q {
        fill: #46465e;
      }

      .r {
        fill: #9d9cb5;
      }

      .s {
        stroke: #535461;
        stroke-width: 2px;
      }
    </style>
    <linearGradient id="a" data-name="Безымянный градиент 2" x1="1263.74" y1="481.83" x2="1263.74" y2="753.82" gradientTransform="matrix(1, 0, 0, -1, -964.75, 808.26)" gradientUnits="userSpaceOnUse">
      <stop offset="0" stop-color="gray" stop-opacity="0.25"/>
      <stop offset="0.54" stop-color="gray" stop-opacity="0.12"/>
      <stop offset="1" stop-color="gray" stop-opacity="0.1"/>
    </linearGradient>
    <linearGradient id="b" x1="1455.46" y1="356.65" x2="1455.46" y2="642.29" gradientTransform="matrix(1, 0, 0, -1, -26.97, 1041.96)" xlink:href="#a"/>
  </defs>
  <path class="a" d="M1534.65,552.24c-13.43,27.7-40.69,46.21-68.94,58.43-38,16.44-79.91,23-121.21,20.21q-10.86-.74-21.65-2.31a273.23,273.23,0,0,1-72.39-21.08q-10-4.5-19.54-9.81a249.39,249.39,0,0,1-30.55-20q-3.66-2.79-7.21-5.72c-1.64-1.35-3.27-2.74-4.92-4.08a61.8,61.8,0,0,0-11.07-7.54,39.45,39.45,0,0,0-3.71-1.64c-12.67-4.82-27.29-3-40.48.76-10,2.86-19.81,6.77-29.84,9.57a100.15,100.15,0,0,1-13.59,2.89,72.28,72.28,0,0,1-30.55-2.69l-.85-.26c-1.41-.44-2.81-.93-4.2-1.46l-.85-.32c-1.35-.52-2.66-1.08-3.95-1.67l-.85-.39c-1.35-.62-2.66-1.29-4-2l-1.38-.76a82.66,82.66,0,0,1-19.79-15.4c-.17-.17-.32-.34-.5-.51-.81-.87-1.6-1.75-2.36-2.65-.28-.34-.57-.67-.84-1-.91-1.1-1.78-2.23-2.63-3.39l-.36-.5a73.1,73.1,0,0,1-8.52-15.41c-.07-.16-.14-.33-.2-.5-.67-1.74-1.29-3.5-1.84-5.29-.23-.75-.45-1.52-.64-2.26-.07-.23-.13-.45-.18-.68-2.79-11-3.11-22.39-3.11-33.74v-4c.08-18.36.36-37,3.07-55.13a2.5,2.5,0,0,1,.06-.38,171.53,171.53,0,0,1,3.69-18.09,134.77,134.77,0,0,1,6.22-18.35c6.23-14.65,15.29-28,25.35-40.34,25.34-31.1,58.57-57.21,97.46-67,41.91-10.52,88.49-.44,122.3,26.48,10.31,8.2,19.57,17.92,31.14,24.21,10.11,5.48,21.94,7.75,32.76,3.44,8.94-3.57,14.76-5.33,24.81-4.79a208,208,0,0,1,60.81,12.73l2.36.89c50.88,19.47,94.62,58.14,117.36,107.85.6,1.31,1.19,2.63,1.75,4C1544.7,484.27,1549.6,521.38,1534.65,552.24Z" transform="translate(-964.75 -273.74)"/>
  <ellipse class="a" cx="61.02" cy="368.23" rx="44.6" ry="7.16"/>
  <ellipse class="a" cx="461.16" cy="406.58" rx="79.09" ry="7.68"/>
  <rect class="b" x="58.92" y="54.44" width="480.16" height="271.99" rx="6.31"/>
  <rect class="c" x="59.68" y="58.26" width="478.69" height="267.27" rx="6.31"/>
  <rect class="c" x="59.68" y="58.26" width="478.69" height="267.27" rx="6.31"/>
  <rect class="d" x="59.68" y="58.26" width="478.69" height="267.27" rx="6.31"/>
  <path class="e" d="M1500.69,328.93H1026.86a2.43,2.43,0,0,0-2.43,2.44v10.27H1503.1V331.37A2.44,2.44,0,0,0,1500.69,328.93Z" transform="translate(-964.75 -273.74)"/>
  <g>
    <circle class="c" cx="69.24" cy="61.55" r="3.28"/>
    <circle class="c" cx="78.08" cy="61.55" r="3.28"/>
    <circle class="c" cx="86.92" cy="61.55" r="3.28"/>
  </g>
  <rect class="f" x="99.11" y="91.79" width="128.46" height="10.9"/>
  <rect class="g" x="99.11" y="135.51" width="399.84" height="167.72"/>
  <path class="h" d="M1298,420.18h-6.84V406.89a27.35,27.35,0,1,0-54.69-.58v13.87h-6.83a11.43,11.43,0,0,0-11.39,11.4v54.68a11.43,11.43,0,0,0,11.39,11.39H1298a11.42,11.42,0,0,0,11.39-11.39V431.58A11.42,11.42,0,0,0,1298,420.18Zm-30.19,35.55v19.58a4.09,4.09,0,0,1-3.79,4.11,4,4,0,0,1-4.18-3.81V455.72a9.09,9.09,0,1,1,8,0Zm15.38-35.55H1244.4V406.52a19.37,19.37,0,0,1,38.74,0Z" transform="translate(-964.75 -273.74)"/>
  <path class="i" d="M1298,419.17h-6.84V405.88a27.35,27.35,0,1,0-54.69-.58v13.87h-6.83a11.43,11.43,0,0,0-11.39,11.4v54.68a11.43,11.43,0,0,0,11.39,11.39H1298a11.42,11.42,0,0,0,11.39-11.39V430.57A11.42,11.42,0,0,0,1298,419.17Zm-30.19,35.55V474.3a4.07,4.07,0,0,1-3.79,4.1,4,4,0,0,1-4.18-3.8V454.71a9.09,9.09,0,1,1,8,0Zm15.38-35.55H1244.4V405.51a19.37,19.37,0,0,1,38.74,0Z" transform="translate(-964.75 -273.74)"/>
  <rect class="g" x="458.47" y="119.37" width="40.47" height="9.55"/>
  <path class="j" d="M1477.46,682.63a14.16,14.16,0,0,0-1.35-3.84l-6.06-9h0s-.95-4.55,0-6.79-3.4-7.72-3.4-7.72a3.27,3.27,0,0,1,.85-3.08c1.39-1.7-.85-6.67-.85-6.67s-1.06-10.38-1.17-12-1-10.37-1-10.37l-2-18.64-3.6-49.4-.06-.93c.44-.21.68-.35.68-.35l-.72-27.31.62-.57c5.43-4.91,17.94-16.28,17.82-16.52s-1.52-19-1.68-23.67a28.25,28.25,0,0,0-2.15-9.69c-.32-.63-1.22-4.72-1.59-6.46-.11-.47-.17-.77-.17-.77s-3.67-7-3.35-10.17,1-5.56-6.87-6.67c0,0-6.57-1-10.48-3.65a29.79,29.79,0,0,0-7.5-3.76s-2.2-4-3.72-2.67a21.15,21.15,0,0,1-1.44-4.51l0-.28a14.86,14.86,0,0,0,5.88-8.42c0-.19.09-.39.14-.58a1.86,1.86,0,0,0,.47.09c1.33,0,2.15-1.48,3.39-1.95.5-.2,1.13-.23,1.52-.63a1.54,1.54,0,0,0,.33-1.12,2.8,2.8,0,0,0,0-.41V424c-.34-1.84-1.76-3.47-1.61-5.34s1.7-3.3,1.57-5a2.83,2.83,0,0,0,0-.41v.06a4.43,4.43,0,0,0-1-1.79,5.73,5.73,0,0,0-2.08-1.74c-.71-.31-1.52-.38-2.18-.75-1.93-1-1.92-3.79-3.07-5.66a5,5,0,0,0-4.68-2.32c-1.44.14-2.74.9-4.16,1.15a10.81,10.81,0,0,1-5.75-1,15.87,15.87,0,0,0-5.68-1.51c-2,0-4.11,1-4.71,2.87-.32,1-.16,2.1-.4,3.12-.44,1.81-2,3.11-3.67,4-1,.57-2.21,1.21-2.52,2.27v-.08a2,2,0,0,0,0,.26,1.82,1.82,0,0,0,0,.33,6.39,6.39,0,0,0,.64,2.12,5.82,5.82,0,0,1,0,4.07c-.38,1-1,1.8-1.38,2.76a5.45,5.45,0,0,0-.33,1.38v-.08c0,.22,0,.43,0,.65a4.51,4.51,0,0,0,.51,2.12,3.78,3.78,0,0,0,2.26,1.9c1,.24,1.65-.75,2.71-.5a2.81,2.81,0,0,1,.56.18c0,.22.07.45.11.67a14.89,14.89,0,0,0,5.13,8.68c0,.12,0,.24,0,.37h0a32.66,32.66,0,0,1,.42,6.09s-1.59-2.33-3.77,2.17c0,0-5.7,3.28-7.66,3.66s-8.94,2.8-8.94,2.8a6.2,6.2,0,0,1-3.62,1.17c-2.18,0-4,4.76-3.73,7.35s-.15,4.51-2.18,4.61-.92,4.22-.9,4.29l-.19.88c-.39,1.81-1.25,5.69-1.56,6.3a28.25,28.25,0,0,0-2.15,9.69c-.16,4.69-1.52,23.35-1.68,23.67s8.47,8,14.5,13.52l.87.79-2.77,25.91a6.92,6.92,0,0,0,2.85,5.05c0,.3,0,.61,0,.93-.12,3-.36,6.7-.85,7.66-.85,1.7-.64,10.8-.64,10.8s-.85,18.53-1.91,20.55a14,14,0,0,0-1,7.07c.32.83-1.07,23.09-1.07,23.09l-1.06,10s.32,9.53-.64,9.74-1.49,6.78-1.49,6.78-3.4,4.66-1.91,6.35-.22,2.44-.38,2.86-3.24,2-1,7.94c0,.06,0,.12.07.17-2.09,2.91-8.72,12.28-8.31,13.71a3.76,3.76,0,0,0,1.76,2.12c1.56.93,4.24,1.37,8.5,0,7.08-2.28,6.57-3.92,6.57-3.92a3,3,0,0,1,3-2.86c2.93-.21,5.11-2.91,5.11-2.91l-.34-1.28-.47-1.77c.05-.5.41-1.39,2-1.88,2.45-.74,1.81-5.4,1.81-5.4s-.22-4.87.84-5.51.65-8.68.65-8.68a59.41,59.41,0,0,1,2.87-9.75c1.69-3.92,3.72-27.21,3.72-27.21s1.38-11.44,2.66-14.73,2.45-12.49,2.45-12.49,7.88-15.25,8-18.64c0,0,1-3.18,2,.31s3.85,11.87,3.85,11.87l2.77,10.27,3.3,15.35,2.13,12.93s-.33,4.87.5,6.57,2,5.6,1.39,6.35,1.27,4.24,1.81,5,0,16.42,0,16.42,2.44,13.34,5.95,15.66a4.84,4.84,0,0,0,.78.41c0,1.44-.1,3.38,0,4.39a1.67,1.67,0,0,0,.11.66c.31.42,3.93,3.28,4.68,3.28s3.4,1.86,3.51,2.76,7.78,4.71,8.86,4.82,6.36,1.05,7.08-.43A2.37,2.37,0,0,0,1477.46,682.63Zm-18.83-190.84.55.47s.56,4.37,1,5.68a10.92,10.92,0,0,1-.08,3.85,8.55,8.55,0,0,0,.56,2.78c.47,1-1,3-1,3h-1.28l-.4-16.36Zm-38-48.85v-.1a.38.38,0,0,0,0,.1Zm-19.63,63a1.9,1.9,0,0,1-.08-1.35,3.36,3.36,0,0,0,.27-.75,10.58,10.58,0,0,0,.29-2v0a10.83,10.83,0,0,1-.07-3.83c.38-1.24.95-5.68.95-5.68l.37-.31.84-.73a6,6,0,0,1,.06-.72c.18,3.84.32,8.08.09,8.29-.42.42-2,4.55-1.59,4.71a19.74,19.74,0,0,1-.33,3.93A8.18,8.18,0,0,1,1401,505.92Z" transform="translate(-964.75 -273.74)"/>
  <path class="k" d="M1441.72,447v6.28l-12.9,6.49s-12.8-7.75-9.64-10.83c2-1.95,1.63-7.31,1.08-11h0c-.31-2.14-.68-3.71-.68-3.71s23-6.57,19.52-1.59a7.87,7.87,0,0,0-.86,6A27,27,0,0,0,1441.72,447Z" transform="translate(-964.75 -273.74)"/>
  <path class="e" d="M1406.39,508.44l-1.66,20.48-5.71-5.2c-6-5.46-14.47-13.25-14.37-13.46s1.52-18.89,1.67-23.56a28.06,28.06,0,0,1,2.13-9.64,59.21,59.21,0,0,0,1.51-6.27c.13-.56.2-.92.2-.92l2.79-1.13s11.62,13,11.62,13.21-.79,10.19-.79,10.19l-.83.72-.35.31s-.56,4.35-.95,5.65a10.17,10.17,0,0,0,.07,3.81h0a11.44,11.44,0,0,1-.29,2,3.91,3.91,0,0,1-.26.75,1.78,1.78,0,0,0,.08,1.34,7.51,7.51,0,0,0,.87,1.66Z" transform="translate(-964.75 -273.74)"/>
  <path class="e" d="M1476.82,510.26c.12.25-12.27,11.56-17.64,16.45l-2.44,2.21-1.64-20.48h4.27s1.42-2.05,1-3a8.48,8.48,0,0,1-.55-2.77,11.14,11.14,0,0,0,.07-3.83c-.39-1.31-.95-5.66-.95-5.66l-.54-.46-.64-.56s-.79-10-.79-10.2,11.62-13.2,11.62-13.2l2.77,1.11.16.77c.37,1.72,1.26,5.8,1.57,6.42a28.07,28.07,0,0,1,2.14,9.64C1475.31,491.37,1476.66,509.94,1476.82,510.26Z" transform="translate(-964.75 -273.74)"/>
  <path class="l" d="M1476.87,684c-.74,1.47-5.95.5-7,.42s-8.68-3.9-8.78-4.8-2.74-2.74-3.48-2.74-4.32-2.84-4.64-3.26a1.66,1.66,0,0,1-.1-.66c-.11-1.73.1-6.2.1-6.2l15.29.85,7.43,11.17a14.7,14.7,0,0,1,1.34,3.82A2.48,2.48,0,0,1,1476.87,684Z" transform="translate(-964.75 -273.74)"/>
  <path class="h" d="M1476.87,684c-.74,1.47-5.95.5-7,.42s-8.68-3.9-8.78-4.8-2.74-2.74-3.48-2.74-4.32-2.84-4.64-3.26a1.66,1.66,0,0,1-.1-.66c-.11-1.73.1-6.2.1-6.2l15.29.85,7.43,11.17a14.7,14.7,0,0,1,1.34,3.82A2.48,2.48,0,0,1,1476.87,684Z" transform="translate(-964.75 -273.74)"/>
  <path class="h" d="M1476.87,684c-.74,1.47-5.95.5-7,.42s-8.68-3.9-8.78-4.8-2.74-2.74-3.48-2.74-4.32-2.84-4.64-3.26a1.66,1.66,0,0,1-.1-.66l5,3.13a21,21,0,0,1,4,3.22c.84,1.2,7.49,3.69,8,3.74s4.77-.8,7.16-.45A2.48,2.48,0,0,1,1476.87,684Z" transform="translate(-964.75 -273.74)"/>
  <path class="l" d="M1404.62,674.82s-2.16,2.69-5,2.89a3,3,0,0,0-3,2.85s.5,1.63-6.48,3.9c-4.22,1.36-6.88.93-8.42,0a3.7,3.7,0,0,1-1.75-2.11c-.48-1.68,8.85-14.49,8.85-14.49l8.49-.5,6.06,2.73.93,3.47Z" transform="translate(-964.75 -273.74)"/>
  <path class="h" d="M1404.62,674.82s-2.16,2.69-5,2.89a3,3,0,0,0-3,2.85s.5,1.63-6.48,3.9c-4.22,1.36-6.88.93-8.42,0a3.7,3.7,0,0,1-1.75-2.11c-.48-1.68,8.85-14.49,8.85-14.49l8.49-.5,6.06,2.73.93,3.47Z" transform="translate(-964.75 -273.74)"/>
  <path class="m" d="M1404.62,674.82s-2.16,2.69-5,2.89a3,3,0,0,0-3,2.85s.5,1.63-6.48,3.9c-4.22,1.36-6.88.93-8.42,0,4-.41,12.76-2.92,13.64-3.79,1.06-1.06,2.37-4,3.27-4,.62,0,3.78-1.94,5.67-3.12Z" transform="translate(-964.75 -273.74)"/>
  <path class="h" d="M1404.62,674.82s-2.16,2.69-5,2.89a3,3,0,0,0-3,2.85s.5,1.63-6.48,3.9c-4.22,1.36-6.88.93-8.42,0,4-.41,12.76-2.92,13.64-3.79,1.06-1.06,2.37-4,3.27-4,.62,0,3.78-1.94,5.67-3.12Z" transform="translate(-964.75 -273.74)"/>
  <path class="e" d="M1469.7,663.07c-1,2.21,0,6.74,0,6.74s-14.14.74-17.6-1.58-5.9-15.6-5.9-15.6.5-15.6,0-16.34-2.43-4.21-1.79-4.95-.51-4.64-1.37-6.33-.51-6.53-.51-6.53l-2.11-12.86-3.27-15.28-2.77-10.23s-2.84-8.32-3.81-11.8-2-.32-2-.32c-.11,3.38-7.91,18.55-7.91,18.55s-1.16,9.18-2.42,12.44-2.64,14.65-2.64,14.65-2,23.19-3.69,27.09a60.36,60.36,0,0,0-2.81,9.69s.42,8-.63,8.65-.89,5.48-.89,5.48.63,4.63-1.79,5.38-2,2.32-2,2.32-13.49,2.21-15.71-3.7.85-7.48,1-7.9,1.85-1.16.38-2.85,1.89-6.32,1.89-6.32.53-6.53,1.48-6.75.64-9.69.64-9.69l1-9.91s1.37-22.13,1-23a14.08,14.08,0,0,1,1-7.07c1.06-2,1.9-20.45,1.9-20.45s-.22-9.06.63-10.75c.5-1,.72-4.63.84-7.63.09-2.28.11-4.18.11-4.18l11.8-4.43,15.16-4.84,12.75,6.11,18.66,3.59.23,3.21,3.57,49.17,2,18.55s.84,8.74,1,10.33,1.15,11.91,1.15,11.91,2.22,5,.85,6.64a3.21,3.21,0,0,0-.85,3S1470.65,660.85,1469.7,663.07Z" transform="translate(-964.75 -273.74)"/>
  <path class="h" d="M1439.11,432.63a7.87,7.87,0,0,0-.86,6,14.83,14.83,0,0,1-18-.68h0c-.31-2.14-.68-3.71-.68-3.71S1442.59,427.65,1439.11,432.63Z" transform="translate(-964.75 -273.74)"/>
  <path class="k" d="M1444.49,426.19a14.81,14.81,0,1,1-14.81-14.81h0A14.74,14.74,0,0,1,1444.49,426Z" transform="translate(-964.75 -273.74)"/>
  <polygon class="h" points="482.82 177.05 477.97 263.42 451.62 257.89 446.4 223.27 451.57 176.78 455.46 177.28 462.32 178.16 469.12 178.58 476.49 177.76 482.82 177.05"/>
  <polygon class="i" points="482.82 177.68 477.97 264.06 451.62 258.52 446.4 223.9 451.57 177.42 455.46 177.91 462.32 178.79 469.12 179.21 476.49 178.39 482.82 177.68"/>
  <path class="l" d="M1425.91,453.74l9.49.32-2.67,3.73s.19,7.54,1.45,9.71.9,35.57.9,35.57l-2.53,4.79-4.32-5.37.06-44.11Z" transform="translate(-964.75 -273.74)"/>
  <path class="h" d="M1425.91,453.74l9.49.32-2.67,3.73s.19,7.54,1.45,9.71.9,35.57.9,35.57l-2.53,4.79-4.32-5.37.06-44.11Z" transform="translate(-964.75 -273.74)"/>
  <polygon class="h" points="476.02 170.2 467.17 180 472.23 185.27 480.61 177.1 476.02 170.2"/>
  <polygon class="i" points="476.02 169.57 467.17 179.37 472.23 184.64 480.61 176.47 476.02 169.57"/>
  <polygon class="h" points="463.43 179.53 454.47 170.57 453.62 175.26 457.74 185.53 463.43 179.53"/>
  <polygon class="i" points="463.75 178.89 454.79 169.94 453.94 174.63 458.06 184.9 463.75 178.89"/>
  <path class="h" d="M1458.66,555.72a43.9,43.9,0,0,1-13.64,3.95c-8.7,1.1-14.39-10-14.39-10l-3.32,4.32c-1,4.58-17.13,5.74-23.66,4a10.35,10.35,0,0,1-3.75-1.77c.09-2.29.11-4.18.11-4.18l11.81-4.43L1427,542.8l12.76,6.12,18.66,3.58Z" transform="translate(-964.75 -273.74)"/>
  <path class="h" d="M1447.57,451.42l-4.85,86.37-26.35-5.53-5.23-34.62,5.16-46.48,3.89.5a47.57,47.57,0,0,1-.57,5c-.63,3,3.27,23.93,3.27,23.93s7.41,23.52,10.75,20.13,8.08-21.29,8.08-21.29c3.22-6.64.06-25.26-.18-25.64a7.4,7.4,0,0,1-.3-1.69Z" transform="translate(-964.75 -273.74)"/>
  <path class="h" d="M1459,518.26l.22,8.46-2.43,2.21-1.64-20.49h3.63Z" transform="translate(-964.75 -273.74)"/>
  <path class="h" d="M1401.73,502.65h0a12.61,12.61,0,0,1-.29,2c0-.19,0-.3,0-.31S1401.43,503.55,1401.73,502.65Z" transform="translate(-964.75 -273.74)"/>
  <path class="h" d="M1406.39,508.44l-1.66,20.48-5.71-5.2.38-3.63s1.36-8.91,1.86-13.31a7.51,7.51,0,0,0,.87,1.66Z" transform="translate(-964.75 -273.74)"/>
  <path class="e" d="M1420.69,444s-1.58-2.32-3.74,2.15c0,0-5.64,3.27-7.58,3.64s-8.84,2.8-8.84,2.8a6.13,6.13,0,0,1-3.58,1.15c-2.17,0-4,4.75-3.7,7.33s-.15,4.48-2.15,4.59-.9,4.26-.9,4.26l13.33,15.29s.84,14.07.42,14.49-2,4.55-1.58,4.69-2,15.7-2,15.7l-3.21,30.2s0,5.05,6.54,6.8,22.62.59,23.65-4l3.32-4.32s5.69,11.07,14.39,10a41.92,41.92,0,0,0,14.23-4.27l-1-36.19-.63-26.09,13.57-22.3s-3.63-7-3.31-10.11.94-5.53-6.81-6.64c0,0-6.53-1-10.38-3.64a30.3,30.3,0,0,0-7.43-3.74s-2.17-4-3.68-2.65c0,0,1.52,5.71,1.39,6.57a21.39,21.39,0,0,0,.48,5.11c.23.4,3.4,19,.18,25.64,0,0-4.73,17.9-8.09,21.29s-10.74-20.13-10.74-20.13-3.9-21-3.27-23.93S1420.69,444,1420.69,444Z" transform="translate(-964.75 -273.74)"/>
  <circle class="l" cx="467.22" cy="237.02" r="2.32"/>
  <circle class="l" cx="467.22" cy="247.96" r="2.32"/>
  <circle class="h" cx="467.22" cy="237.02" r="2.32"/>
  <circle class="h" cx="467.22" cy="247.96" r="2.32"/>
  <path class="n" d="M1452.81,659.9s9.52.74,10.46,1.48S1452.81,659.9,1452.81,659.9Z" transform="translate(-964.75 -273.74)"/>
  <path class="n" d="M1396.13,652.42s2,2.53,1.17,3.69S1396.13,652.42,1396.13,652.42Z" transform="translate(-964.75 -273.74)"/>
  <path class="n" d="M1398.56,661.53s3.69-2.43,5.16-.81S1398.56,661.53,1398.56,661.53Z" transform="translate(-964.75 -273.74)"/>
  <path class="h" d="M1444.49,426.19a14.76,14.76,0,0,1-.48,3.74,1.68,1.68,0,0,1-1-1.65c.07-.6.47-1.15.38-1.74-.13-.92-1.24-1.3-1.82-2s-.57-2.15-.51-3.29-.23-2.53-1.29-2.92c-.32-.11-.67-.12-1-.25-.84-.36-1.09-1.4-1.66-2.12-1.12-1.44-3.34-1.41-5.05-.72-.74.35-1.5.67-2.27,1a3,3,0,0,1-2.38-.18c-.33-.21-.6-.5-1-.72-1.14-.68-2.63,0-3.62.89s-1.79,2.07-3,2.61c-.56.25-1.25.4-1.51.95a1.91,1.91,0,0,0-.16.94,28.22,28.22,0,0,1-.18,5.89c-.26,1.24-1.13,2.64-2.39,2.49a1.83,1.83,0,0,1-.46-.12,14.8,14.8,0,0,1,29.1-5.44,14.47,14.47,0,0,1,.26,2.71Z" transform="translate(-964.75 -273.74)"/>
  <path class="l" d="M1414.48,428.08c.38.08.74.28,1.13.33,1.25.15,2.12-1.25,2.39-2.49a28.24,28.24,0,0,0,.18-5.89,1.89,1.89,0,0,1,.15-.94c.29-.55,1-.7,1.52-.95,1.22-.55,2-1.71,3-2.61s2.48-1.58,3.62-.89c.34.2.62.51,1,.72a3,3,0,0,0,2.38.18c.79-.24,1.52-.65,2.27-1,1.69-.69,3.92-.72,5.05.72.57.72.82,1.76,1.66,2.11.31.13.66.15,1,.26,1.06.4,1.34,1.78,1.29,2.92s-.2,2.41.51,3.29c.58.72,1.69,1.09,1.82,2,.08.6-.31,1.16-.38,1.75a1.68,1.68,0,0,0,1.56,1.79h0c1.32,0,2.13-1.47,3.36-1.94.5-.2,1.11-.23,1.51-.63a1.68,1.68,0,0,0,.32-1.37c-.25-1.93-1.8-3.61-1.64-5.55s1.88-3.48,1.52-5.31a4.32,4.32,0,0,0-1-1.81,5.87,5.87,0,0,0-2.06-1.74,20.3,20.3,0,0,1-2.16-.74c-1.91-1.05-1.9-3.78-3-5.64a5,5,0,0,0-4.61-2.29c-1.42.14-2.71.89-4.11,1.15a10.71,10.71,0,0,1-5.7-1,15.43,15.43,0,0,0-5.62-1.52c-2,0-4.08,1-4.67,2.86-.32,1-.16,2.09-.4,3.11-.43,1.8-2,3.08-3.63,4-1.11.61-2.44,1.32-2.57,2.58a5.38,5.38,0,0,0,.64,2.29,5.79,5.79,0,0,1,0,4c-.36,1-1,1.79-1.35,2.74a4.93,4.93,0,0,0,.13,4.05,3.76,3.76,0,0,0,2.31,1.89C1412.79,428.83,1413.42,427.84,1414.48,428.08Z" transform="translate(-964.75 -273.74)"/>
  <g class="o">
    <path d="M1418,424.82c-.27,1.24-1.14,2.64-2.4,2.49-.39-.05-.74-.25-1.13-.34-1-.23-1.68.76-2.67.51a3.81,3.81,0,0,1-2.32-1.89,4.58,4.58,0,0,1-.47-1.66,4.62,4.62,0,0,0,.47,2.61,3.81,3.81,0,0,0,2.32,1.89c1,.23,1.62-.76,2.67-.51a11.22,11.22,0,0,0,1.13.33c1.26.16,2.13-1.24,2.4-2.48a15.43,15.43,0,0,0,.24-3.32A13.51,13.51,0,0,1,1418,424.82Z" transform="translate(-964.75 -273.74)"/>
    <path d="M1411.07,417.21a5.78,5.78,0,0,0-.33-2.44,12.71,12.71,0,0,1-.58-1.6,2.38,2.38,0,0,0-.05.26,5.44,5.44,0,0,0,.63,2.29A5.45,5.45,0,0,1,1411.07,417.21Z" transform="translate(-964.75 -273.74)"/>
    <path d="M1449.68,414.55c-.24,1.43-1.4,2.78-1.52,4.29a3.39,3.39,0,0,0,0,.78C1448.41,417.85,1450,416.29,1449.68,414.55Z" transform="translate(-964.75 -273.74)"/>
    <path d="M1449.76,425.21a1.12,1.12,0,0,1-.29.56c-.37.4-1,.43-1.51.63-1.23.47-2,2-3.36,1.94a1.69,1.69,0,0,1-1.51-1.17,1.94,1.94,0,0,0-.07.33,1.68,1.68,0,0,0,1.56,1.78h0c1.32,0,2.12-1.47,3.35-1.93.51-.2,1.12-.23,1.52-.63a1.68,1.68,0,0,0,.31-1.37A.52.52,0,0,0,1449.76,425.21Z" transform="translate(-964.75 -273.74)"/>
    <path d="M1443.43,424.79c-.13-.92-1.24-1.3-1.83-2a2.76,2.76,0,0,1-.55-1.66,3.69,3.69,0,0,0,.55,2.61c.58.7,1.47,1,1.75,1.73A1.64,1.64,0,0,0,1443.43,424.79Z" transform="translate(-964.75 -273.74)"/>
    <path d="M1441.08,419.5c0-1.14-.24-2.53-1.3-2.92-.32-.11-.66-.13-1-.26-.84-.35-1.1-1.39-1.66-2.11-1.13-1.44-3.36-1.41-5.05-.73a23.66,23.66,0,0,1-2.27.95,3,3,0,0,1-2.38-.17c-.33-.21-.61-.51-1-.72-1.14-.69-2.64,0-3.62.88s-1.79,2.07-3,2.62c-.56.25-1.25.4-1.54.95a2,2,0,0,0-.16.94v.59a1.47,1.47,0,0,1,.15-.58c.29-.55,1-.7,1.54-.95,1.23-.55,2-1.71,3-2.62s2.48-1.57,3.62-.88c.34.2.62.51,1,.71a3,3,0,0,0,2.38.18,23.66,23.66,0,0,0,2.27-.95c1.69-.68,3.92-.71,5.05.73.56.71.82,1.76,1.66,2.11.31.13.65.15,1,.26a2.43,2.43,0,0,1,1.28,2.25Z" transform="translate(-964.75 -273.74)"/>
  </g>
  <g class="o">
    <path d="M1416.19,424.79a3.88,3.88,0,0,1,2.92-3.63,12.14,12.14,0,0,1,6.81.31c4.8,1.59-.6,7.3-.6,7.3s-3.6,3.54-7,1.06a5.24,5.24,0,0,1-1.95-3A8,8,0,0,1,1416.19,424.79Z" transform="translate(-964.75 -273.74)"/>
    <path d="M1442.55,424.79a3.88,3.88,0,0,0-2.92-3.63,12.14,12.14,0,0,0-6.81.31c-4.8,1.59.61,7.3.61,7.3s3.58,3.54,6.94,1.06a5.19,5.19,0,0,0,2-3A7.57,7.57,0,0,0,1442.55,424.79Z" transform="translate(-964.75 -273.74)"/>
    <polygon points="460.27 147.27 460.27 147.51 469.03 147.51 469.03 147.22 460.27 147.27"/>
    <path d="M1427.81,423.54h.28v-.8a2.29,2.29,0,0,1,2.37,0v.71h.5V423h-.25s.1-1-1.54-.82c0,0-1.33-.12-1.3.72h-.3Z" transform="translate(-964.75 -273.74)"/>
  </g>
  <path class="i" d="M1416.19,424.46a3.87,3.87,0,0,1,2.92-3.62,12.23,12.23,0,0,1,6.81.3c4.8,1.6-.6,7.3-.6,7.3s-3.6,3.54-7,1.07a5.22,5.22,0,0,1-1.95-3A7.52,7.52,0,0,1,1416.19,424.46Z" transform="translate(-964.75 -273.74)"/>
  <path class="i" d="M1442.55,424.46a3.86,3.86,0,0,0-2.92-3.62,12.23,12.23,0,0,0-6.81.3c-4.8,1.6.61,7.3.61,7.3s3.58,3.54,6.94,1.07a5.22,5.22,0,0,0,2-3A7.52,7.52,0,0,0,1442.55,424.46Z" transform="translate(-964.75 -273.74)"/>
  <polygon class="i" points="460.27 146.95 460.27 147.19 469.03 147.19 469.03 146.91 460.27 146.95"/>
  <path class="i" d="M1427.81,423.22h.28v-.8a2.32,2.32,0,0,1,2.37,0v.72h.5v-.48h-.25s.1-1-1.54-.81c0,0-1.33-.12-1.3.71h-.3Z" transform="translate(-964.75 -273.74)"/>
  <rect class="p" x="59.59" y="231" width="2.87" height="64.62"/>
  <path class="q" d="M1045.24,569.16l-.18,2.91-.26,4.11-.1,1.71-.26,4.11-.11,1.72-.25,4.1-2.89,46.72a7.92,7.92,0,0,1-7.9,7.43h-15a7.9,7.9,0,0,1-7.89-7.43l-2.91-46.72-.25-4.1-.11-1.72-.25-4.12-.1-1.71-.26-4.11-.18-2.91a4.1,4.1,0,0,1,3.84-4.34h31a4.1,4.1,0,0,1,4.1,4.09C1045.25,569,1045.24,569.07,1045.24,569.16Z" transform="translate(-964.75 -273.74)"/>
  <polygon class="r" points="80.31 298.33 80.06 302.44 41.98 302.44 41.73 298.33 80.31 298.33"/>
  <polygon class="r" points="79.95 304.15 79.7 308.26 42.34 308.26 42.08 304.15 79.95 304.15"/>
  <polygon class="r" points="79.59 309.98 79.34 314.09 42.7 314.09 42.45 309.98 79.59 309.98"/>
  <path class="i" d="M1002.09,529c16.71,12.09,23.68,31,23.68,31s-20.15-.69-36.89-12.78-23.67-31-23.67-31S985.37,516.86,1002.09,529Z" transform="translate(-964.75 -273.74)"/>
  <path class="s" d="M965.23,516.17s20.91,11.62,27.61,21.22S1025.77,560,1025.77,560" transform="translate(-964.75 -273.74)"/>
  <path class="i" d="M1012.88,504.62c9.09,6.57,12.89,16.87,12.89,16.87s-11-.37-20.07-7-12.88-16.88-12.88-16.88S1003.78,498,1012.88,504.62Z" transform="translate(-964.75 -273.74)"/>
  <path class="s" d="M992.82,497.63s11.38,6.32,15,11.55,17.93,12.29,17.93,12.29" transform="translate(-964.75 -273.74)"/>
  <path class="i" d="M1039,521c-10.46,11.48-12.66,26.49-12.66,26.49s14.73-3.61,25.18-15.1,12.66-26.49,12.66-26.49S1049.44,509.46,1039,521Z" transform="translate(-964.75 -273.74)"/>
  <path class="s" d="M1064.17,505.85s-13.61,11.77-17.07,19.88-20.77,21.73-20.77,21.73" transform="translate(-964.75 -273.74)"/>
</svg>
