<svg xmlns="http://www.w3.org/2000/svg" viewBox="0 0 245.66 492.68">
  <defs>
    <style>
      .a {
        fill: #3f3d56;
      }

      .b {
        fill: #fff;
      }

      .c {
        fill: #ccc;
      }

      .d {
        fill: #e6e6e6;
      }

      .e {
        fill: #ff6584;
      }

      .f {
        fill: #5fc273;
      }

      .g {
        fill: #2f2e41;
      }

      .h {
        fill: #feb8b8;
      }

      .i {
        fill: #f0f0f0;
      }
    </style>
  </defs>
  <g>
    <path class="a" d="M602.67,511.08H600V436.92A42.93,42.93,0,0,0,557.05,394H399.93A42.93,42.93,0,0,0,357,436.92V843.76a42.93,42.93,0,0,0,42.92,42.92H557.05A42.93,42.93,0,0,0,600,843.76V563.87h2.7Z" transform="translate(-357.01 -394)"/>
    <path class="b" d="M591.22,434.05V846.63a32.56,32.56,0,0,1-32.54,32.55H398.34a32.57,32.57,0,0,1-32.57-32.55V434.05a32.57,32.57,0,0,1,32.56-32.55h19.45a15.48,15.48,0,0,0,14.32,21.31h91.42a15.48,15.48,0,0,0,14.32-21.31h20.83A32.56,32.56,0,0,1,591.22,434Z" transform="translate(-357.01 -394)"/>
    <path class="c" d="M480.21,599.11a68.84,68.84,0,0,1-68.86-68.81v-.06c0-.14,0-.3,0-.44a68.86,68.86,0,1,1,68.86,69.3h0Zm0-136.28a67.56,67.56,0,0,0-67.4,67c0,.15,0,.27,0,.39a67.42,67.42,0,1,0,67.43-67.41h0Z" transform="translate(-357.01 -394)"/>
    <path class="d" d="M551.42,671.51H408.94a2.64,2.64,0,0,1-2.64-2.64V633.53a2.64,2.64,0,0,1,2.64-2.64H551.42a2.64,2.64,0,0,1,2.64,2.64v35.34a2.64,2.64,0,0,1-2.64,2.64ZM408.94,631.94a1.59,1.59,0,0,0-1.58,1.59v35.34a1.58,1.58,0,0,0,1.58,1.58H551.42a1.59,1.59,0,0,0,1.59-1.58V633.53a1.59,1.59,0,0,0-1.59-1.59Z" transform="translate(-357.01 -394)"/>
    <circle class="c" cx="70.4" cy="257.2" r="11.08"/>
    <path class="d" d="M453,643.81a1.85,1.85,0,0,0,0,3.69h87.08a1.85,1.85,0,0,0,.14-3.69H453Z" transform="translate(-357.01 -394)"/>
    <path class="d" d="M453,654.89a1.85,1.85,0,0,0,0,3.69h87.08a1.85,1.85,0,0,0,.14-3.69H453Z" transform="translate(-357.01 -394)"/>
    <path class="d" d="M551.42,730.61H408.94A2.64,2.64,0,0,1,406.3,728V692.63a2.64,2.64,0,0,1,2.64-2.64H551.42a2.64,2.64,0,0,1,2.64,2.64V728A2.64,2.64,0,0,1,551.42,730.61ZM408.94,691.05a1.58,1.58,0,0,0-1.58,1.58V728a1.59,1.59,0,0,0,1.58,1.59H551.42A1.59,1.59,0,0,0,553,728V692.63a1.58,1.58,0,0,0-1.59-1.58Z" transform="translate(-357.01 -394)"/>
    <circle class="c" cx="70.4" cy="316.3" r="11.08"/>
    <path class="d" d="M453,702.91a1.85,1.85,0,0,0,0,3.69h87.08a1.83,1.83,0,0,0,1.83-1.85,1.85,1.85,0,0,0-1.77-1.84Z" transform="translate(-357.01 -394)"/>
    <path class="d" d="M453,714a1.85,1.85,0,0,0,0,3.7h87.08a1.85,1.85,0,0,0,.06-3.7Z" transform="translate(-357.01 -394)"/>
    <path class="d" d="M551.42,789.71H408.94a2.64,2.64,0,0,1-2.64-2.64V751.73a2.65,2.65,0,0,1,2.64-2.64H551.42a2.65,2.65,0,0,1,2.64,2.64v35.35a2.64,2.64,0,0,1-2.64,2.63ZM408.94,750.15a1.58,1.58,0,0,0-1.58,1.58v35.35a1.58,1.58,0,0,0,1.58,1.58H551.42a1.59,1.59,0,0,0,1.59-1.58V751.73a1.59,1.59,0,0,0-1.59-1.58Z" transform="translate(-357.01 -394)"/>
    <circle class="c" cx="70.4" cy="375.4" r="11.08"/>
    <path class="d" d="M453,762a1.85,1.85,0,0,0,0,3.7h87.08a1.85,1.85,0,0,0,.14-3.69H453Z" transform="translate(-357.01 -394)"/>
    <path class="d" d="M453,773.1a1.85,1.85,0,0,0,0,3.69h87.08a1.85,1.85,0,0,0,.14-3.69H453Z" transform="translate(-357.01 -394)"/>
    <path class="e" d="M394.8,693.8h26.27c1.64-12.12-2-23.44,0-31.52H394.8A35.37,35.37,0,0,0,394.8,693.8Z" transform="translate(-357.01 -394)"/>
    <path class="f" d="M565.34,754.63H539.07c1-12.12,4.16-23.44,0-31.52h26.27A35.31,35.31,0,0,1,565.34,754.63Z" transform="translate(-357.01 -394)"/>
    <path class="f" d="M516.75,815.7H490.48c1-12.12,4.16-23.44,0-31.52h26.27A35.31,35.31,0,0,1,516.75,815.7Z" transform="translate(-357.01 -394)"/>
    <path class="f" d="M515.41,589.64a65.32,65.32,0,0,1-71.13-2.21,26.81,26.81,0,0,1,24.19-15.3h21.81a26.78,26.78,0,0,1,25.13,17.51Z" transform="translate(-357.01 -394)"/>
    <g>
      <path class="g" d="M450.47,526.42c3.3-10.51,10.8-20.15,21.17-23.71s28.47-.23,33.36,9.63c7,14.22,3.88,31.63.14,47.06-1.95-.1-3.91-.18-5.89-.26l-2.79-9.3v9.21c-15.4-.47-31.43-.18-47.47.13C447.55,548.26,447.17,536.93,450.47,526.42Z" transform="translate(-357.01 -394)"/>
      <circle class="h" cx="116.06" cy="142.64" r="23.62"/>
      <path class="g" d="M457.66,508.18a28,28,0,0,1,42.49,24.39c-12.44.57-25.5.72-38.75.75l-3.13-7.66-1.85,7.66H444.29A28.57,28.57,0,0,1,457.66,508.18Z" transform="translate(-357.01 -394)"/>
    </g>
    <path class="i" d="M543.52,609.84a74.26,74.26,0,0,1-3.44,20.38l-.15.46H527.07c0-.14,0-.29,0-.46.86-9.85,5.8-69.82-.11-80.07C527.52,551,544.51,578.53,543.52,609.84Z" transform="translate(-357.01 -394)"/>
    <path class="i" d="M541.46,629.72l-.7,1H520.59c.16-.27.33-.59.54-1,3.33-6,13.19-24,22.34-42.62,9.84-20,18.86-40.81,18.1-48.34C561.81,540.46,568.61,592.19,541.46,629.72Z" transform="translate(-357.01 -394)"/>
  </g>
</svg>
