<?xml version="1.0" encoding="utf-8"?>
<!-- Generator: Adobe Illustrator 24.1.2, SVG Export Plug-In . SVG Version: 6.00 Build 0)  -->
<svg version="1.1" id="Слой_1" xmlns="http://www.w3.org/2000/svg" xmlns:xlink="http://www.w3.org/1999/xlink" x="0px" y="0px"
	 width="30px" height="30px" viewBox="0 0 30 30" style="enable-background:new 0 0 30 30;" xml:space="preserve">
<style type="text/css">
	.st0{fill:#FFFFFF;}
</style>
<path class="st0" d="M6,4C4.9,4,4,4.9,4,6v6c0,1.1,0.9,2,2,2h6c1.1,0,2-0.9,2-2V6c0-1.1-0.9-2-2-2H6z"/>
<path class="st0" d="M18,4c-1.1,0-2,0.9-2,2v6c0,1.1,0.9,2,2,2h6c1.1,0,2-0.9,2-2V6c0-1.1-0.9-2-2-2H18z"/>
<rect x="18" y="6" class="st0" width="6" height="6"/>
<path class="st0" d="M6,16c-1.1,0-2,0.9-2,2v6c0,1.1,0.9,2,2,2h6c1.1,0,2-0.9,2-2v-6c0-1.1-0.9-2-2-2H6z"/>
<path class="st0" d="M18,16c-1.1,0-2,0.9-2,2v6c0,1.1,0.9,2,2,2h6c1.1,0,2-0.9,2-2v-6c0-1.1-0.9-2-2-2H18z"/>
<path class="st0" d="M6,18h2c0,0.6,0.4,1,1,1s1-0.4,1-1h2v2c-0.6,0-1,0.4-1,1s0.4,1,1,1v2h-2c0-0.6-0.4-1-1-1s-1,0.4-1,1H6v-2
	c0.6,0,1-0.4,1-1s-0.4-1-1-1V18z"/>
<polygon class="st0" points="19,18 23,18 23,19 24,19 24,23 23,23 23,24 19,24 19,23 18,23 18,19 19,19 "/>
<rect x="20" y="20" class="st0" width="2" height="2"/>
</svg>
