<?xml version="1.0" encoding="utf-8"?>
<svg xmlns="http://www.w3.org/2000/svg" viewBox="0 0 48 48" width="144" height="144">
  <path d="M19.476562 3.9785156 A 1.50015 1.50015 0 0 0 18 5.5L18 7.5 A 1.50015 1.50015 0 1 0 21 7.5L21 5.5 A 1.50015 1.50015 0 0 0 19.476562 3.9785156 z M 41.470703 4.9863281 A 1.50015 1.50015 0 0 0 40.439453 5.4394531L5.4394531 40.439453 A 1.50015 1.50015 0 1 0 7.5605469 42.560547L42.560547 7.5605469 A 1.50015 1.50015 0 0 0 41.470703 4.9863281 z M 9.5859375 8.0859375 A 1.50015 1.50015 0 0 0 8.5410156 10.662109L9.9550781 12.076172 A 1.50015 1.50015 0 1 0 12.076172 9.9550781L10.662109 8.5410156 A 1.50015 1.50015 0 0 0 9.5859375 8.0859375 z M 29.369141 8.0859375 A 1.50015 1.50015 0 0 0 28.337891 8.5410156L26.923828 9.9550781 A 1.50015 1.50015 0 1 0 29.044922 12.076172L30.458984 10.662109 A 1.50015 1.50015 0 0 0 29.369141 8.0859375 z M 19.5 11C14.823343 11 11 14.823343 11 19.5C11 21.781028 11.911368 23.864948 13.376953 25.388672 A 1.50015 1.50015 0 1 0 15.539062 23.308594C14.584647 22.316317 14 20.986972 14 19.5C14 16.444657 16.444657 14 19.5 14C20.986972 14 22.316317 14.584648 23.308594 15.539062 A 1.50015 1.50015 0 1 0 25.388672 13.376953C23.864948 11.911368 21.781028 11 19.5 11 z M 40.476562 14.978516 A 1.50015 1.50015 0 0 0 39 16.5L39 17L38.5 17 A 1.50015 1.50015 0 1 0 38.5 20L39 20L39 20.5 A 1.50015 1.50015 0 1 0 42 20.5L42 20L42.5 20 A 1.50015 1.50015 0 1 0 42.5 17L42 17L42 16.5 A 1.50015 1.50015 0 0 0 40.476562 14.978516 z M 5.5 18 A 1.50015 1.50015 0 1 0 5.5 21L7.5 21 A 1.50015 1.50015 0 1 0 7.5 18L5.5 18 z M 33.925781 23.025391 A 1.50015 1.50015 0 0 0 32.570312 25.021484C32.845918 25.807846 33 26.635119 33 27.5C33 31.364427 30.105028 34.515018 26.369141 34.945312 A 1.50015 1.50015 0 0 0 25.234375 37.173828C26.865481 40.052599 29.96477 42 33.5 42C38.728774 42 43 37.728774 43 32.5C43 27.464853 39.043011 23.325994 34.076172 23.027344 A 1.50015 1.50015 0 0 0 33.925781 23.025391 z M 10.986328 26.470703 A 1.50015 1.50015 0 0 0 9.9550781 26.923828L8.5410156 28.337891 A 1.50015 1.50015 0 1 0 10.662109 30.458984L12.076172 29.044922 A 1.50015 1.50015 0 0 0 10.986328 26.470703 z M 35.830078 26.515625C38.257861 27.453021 40 29.728276 40 32.5C40 36.107226 37.107226 39 33.5 39C31.799098 39 30.407202 38.203347 29.253906 37.140625C33.163904 35.610626 36 31.937575 36 27.5C36 27.15307 35.864076 26.852971 35.830078 26.515625 z M 19.476562 36.978516 A 1.50015 1.50015 0 0 0 18 38.5L18 39L17.5 39 A 1.50015 1.50015 0 1 0 17.5 42L18 42L18 42.5 A 1.50015 1.50015 0 1 0 21 42.5L21 42L21.5 42 A 1.50015 1.50015 0 1 0 21.5 39L21 39L21 38.5 A 1.50015 1.50015 0 0 0 19.476562 36.978516 z" fill="#FFFFFF" />
</svg>