<svg xmlns="http://www.w3.org/2000/svg" viewBox="0 0 240.75 72.1">
  <defs>
    <style>
      .a {
        fill: #5fc273;
      }

      .b {
        fill: #4eaf5d;
      }

      .c {
        fill: #3f3d56;
      }
    </style>
  </defs>
  <g>
    <path class="a" d="M383.53,122.31a2.88,2.88,0,0,1-2-.85c-.06-.07-.13-.14-.18-.21v7.93h0a11.21,11.21,0,0,0,3.05-.41,5.92,5.92,0,0,0,2.23-1.18,5.4,5.4,0,0,0,1.45-2.11,9,9,0,0,0,.55-3.17Zm26-33.29A153.68,153.68,0,0,0,381.3,85.9,153.68,153.68,0,0,0,353.09,89h0a6,6,0,0,0-4.83,5.88v18c0,31.24,30.11,44.3,30.11,44.3a6,6,0,0,0,5.87,0h0s30.11-13.06,30.11-44.3v-18a6,6,0,0,0-4.84-5.9Zm-13.2,33.15a16.19,16.19,0,0,1-1,5.73,12.92,12.92,0,0,1-3,4.64,13.38,13.38,0,0,1-4.77,3,17.33,17.33,0,0,1-6.26,1.07h0a17.33,17.33,0,0,1-6.41-1.13,12.79,12.79,0,0,1-7.5-7.74,18.34,18.34,0,0,1-1-5.54c-.09-2.76-.09-5.56,0-8.33h0a17.72,17.72,0,0,1,1-5.34,12.75,12.75,0,0,1,2.85-4.59,13.28,13.28,0,0,1,4.7-3.08,17.62,17.62,0,0,1,6.39-1.1h0a17,17,0,0,1,6.16,1,15.2,15.2,0,0,1,4.48,2.59,11.59,11.59,0,0,1,2.81,3.42,8.34,8.34,0,0,1,1.05,3.47,2.47,2.47,0,0,1-.81,2,2.73,2.73,0,0,1-1.86.74h-1.91c-1.77,0-2.51-.77-2.82-1.44a13.35,13.35,0,0,0-1.13-1.84A6.21,6.21,0,0,0,386,108.5a6.36,6.36,0,0,0-1.88-.89,9.65,9.65,0,0,0-2.77-.34h0a9.35,9.35,0,0,0-3,.45,6,6,0,0,0-2.19,1.26,6.29,6.29,0,0,0-1.48,2.13,8.48,8.48,0,0,0-.61,3.14c-.06,1.41-.09,2.68-.09,3.85s0,2.44.09,3.79a9.41,9.41,0,0,0,.62,3.37,6.55,6.55,0,0,0,1.48,2.22,5.77,5.77,0,0,0,2.18,1.27,9.65,9.65,0,0,0,3,.46h0a11.21,11.21,0,0,0,3.05-.41,5.92,5.92,0,0,0,2.23-1.18,5.38,5.38,0,0,0,1.44-2.11,9.07,9.07,0,0,0,.56-3.18h-5.08a2.8,2.8,0,0,1-2-.85c-.06-.07-.13-.13-.18-.2a2.77,2.77,0,0,1-.66-1.84v-1.67a2.83,2.83,0,0,1,.66-1.84c.05-.07.12-.14.18-.21a2.88,2.88,0,0,1,2-.85h9.89a2.91,2.91,0,0,1,2.89,2.9Z" transform="translate(-348.25 -85.9)"/>
    <path class="b" d="M381.3,85.9V99.78a17.36,17.36,0,0,0-6.38,1.11,13.12,13.12,0,0,0-4.71,3.09,12.75,12.75,0,0,0-2.85,4.59,17.77,17.77,0,0,0-1,5.35h0c-.09,2.76-.09,5.56,0,8.33a18.27,18.27,0,0,0,1,5.52,12.79,12.79,0,0,0,7.5,7.74,17.12,17.12,0,0,0,6.41,1.12V158a6,6,0,0,1-2.94-.77s-30.11-13.06-30.11-44.3v-18A6,6,0,0,1,353.08,89h0A153.39,153.39,0,0,1,381.3,85.9Z" transform="translate(-348.25 -85.9)"/>
    <path class="b" d="M380.64,117.74v1.68a2.84,2.84,0,0,0,.66,1.83v7.93a9.76,9.76,0,0,1-3-.46,5.61,5.61,0,0,1-2.17-1.27,6.41,6.41,0,0,1-1.48-2.22,9.18,9.18,0,0,1-.62-3.36c-.06-1.36-.09-2.64-.09-3.8s0-2.45.09-3.84a8.4,8.4,0,0,1,.61-3.14,6.23,6.23,0,0,1,1.48-2.14,6,6,0,0,1,2.19-1.26,9.35,9.35,0,0,1,3-.45v8.67A2.84,2.84,0,0,0,380.64,117.74Z" transform="translate(-348.25 -85.9)"/>
    <g>
      <g>
        <path class="c" d="M451.45,124.74a10.52,10.52,0,0,1-4.6,3,19.46,19.46,0,0,1-6.59,1.08,13.12,13.12,0,0,1-6.65-1.66,11.1,11.1,0,0,1-4.41-4.84,16.94,16.94,0,0,1-1.6-7.41v-2a18,18,0,0,1,1.48-7.58,10.85,10.85,0,0,1,4.26-4.9,12.24,12.24,0,0,1,6.52-1.7q5.2,0,8.13,2.48a10.62,10.62,0,0,1,3.47,7.22H445.6a5.73,5.73,0,0,0-1.81-3.67,5.66,5.66,0,0,0-3.78-1.17,5.36,5.36,0,0,0-4.69,2.31q-1.59,2.31-1.62,6.87v1.87q0,4.6,1.75,7a6,6,0,0,0,5.12,2.35q3.39,0,4.83-1.45v-5h-5.48V113h11.51Z" transform="translate(-348.25 -85.9)"/>
        <path class="c" d="M472.84,122.41H462.27l-2,6h-6.41l10.87-29.24h5.59l10.95,29.24h-6.41Zm-8.93-4.88h7.31l-3.68-11Z" transform="translate(-348.25 -85.9)"/>
        <path class="c" d="M494.84,117.73H490v10.7h-6V99.21h10.87c3.46,0,6.13.76,8,2.3a8,8,0,0,1,2.81,6.53,8.15,8.15,0,0,1-5.22,8.18l6.33,11.95v.28h-6.46Zm-4.8-4.89h4.83a5,5,0,0,0,3.52-1.15,4.13,4.13,0,0,0,1.25-3.19,4.41,4.41,0,0,0-1.18-3.25,4.86,4.86,0,0,0-3.62-1.2H490Z" transform="translate(-348.25 -85.9)"/>
        <path class="c" d="M526.92,122.41H516.36l-2,6h-6.41l10.88-29.24h5.58l11,29.24h-6.41ZM518,117.53h7.28l-3.62-11Z" transform="translate(-348.25 -85.9)"/>
        <path class="c" d="M561.88,128.43h-6l-11.73-19.24v19.24h-6V99.21h6l11.75,19.28V99.21h6Z" transform="translate(-348.25 -85.9)"/>
        <path class="c" d="M589,104.07h-9v24.36h-6V104.07h-8.84V99.21H589Z" transform="translate(-348.25 -85.9)"/>
      </g>
      <g>
        <path class="c" d="M433.81,143.85a2.77,2.77,0,0,1-.9,1.86,2.85,2.85,0,0,1-2,.66,2.68,2.68,0,0,1-2.16-1,3.86,3.86,0,0,1-.8-2.58v-.71a4.24,4.24,0,0,1,.37-1.86,2.85,2.85,0,0,1,1.07-1.21,3,3,0,0,1,1.61-.43,2.72,2.72,0,0,1,1.94.68,2.85,2.85,0,0,1,.85,1.86h-1a2.13,2.13,0,0,0-.56-1.31,1.74,1.74,0,0,0-1.21-.42,1.82,1.82,0,0,0-1.51.72,3.2,3.2,0,0,0-.54,2v.73a3.33,3.33,0,0,0,.51,2,1.69,1.69,0,0,0,1.45.73,1.92,1.92,0,0,0,1.28-.38,2.1,2.1,0,0,0,.6-1.31Z" transform="translate(-348.25 -85.9)"/>
        <path class="c" d="M439.47,142.75h-3.29v2.69H440v.82h-4.83v-7.59h4.77v.82h-3.78v2.42h3.31Z" transform="translate(-348.25 -85.9)"/>
        <path class="c" d="M442.24,143.32v3h-1v-7.61H444a2.82,2.82,0,0,1,1.95.64,2.41,2.41,0,0,1,0,3.38,3,3,0,0,1-2,.61Zm0-.83h1.81a1.76,1.76,0,0,0,1.21-.37,1.39,1.39,0,0,0,.42-1.09,1.42,1.42,0,0,0-.42-1.09,1.63,1.63,0,0,0-1.17-.42h-1.86Z" transform="translate(-348.25 -85.9)"/>
        <path class="c" d="M448,146.26v-7.59h2.49a2.88,2.88,0,0,1,1.86.51,1.87,1.87,0,0,1,.6,1.51,1.56,1.56,0,0,1-.3.95,2.06,2.06,0,0,1-.83.6,1.76,1.76,0,0,1,1,.65,1.85,1.85,0,0,1,.36,1.15,2,2,0,0,1-.66,1.61,2.75,2.75,0,0,1-1.87.6Zm1-4.35h1.51a1.6,1.6,0,0,0,1.05-.33,1.09,1.09,0,0,0,.39-.89,1.06,1.06,0,0,0-.36-.91,1.75,1.75,0,0,0-1.11-.29H449Zm0,.8v2.73h1.65a1.57,1.57,0,0,0,1.1-.36,1.25,1.25,0,0,0,.41-1c0-.91-.5-1.37-1.5-1.37Z" transform="translate(-348.25 -85.9)"/>
        <path class="c" d="M459.41,138.67h1v7.59h-1v-5.85l-3.73,5.85h-1v-7.59h1v5.85Z" transform="translate(-348.25 -85.9)"/>
        <path class="c" d="M467.82,143.85a2.81,2.81,0,0,1-.89,1.86,2.94,2.94,0,0,1-2,.66,2.68,2.68,0,0,1-2.16-1,3.92,3.92,0,0,1-.81-2.58v-.71a4.4,4.4,0,0,1,.38-1.86,2.85,2.85,0,0,1,1.07-1.21,3,3,0,0,1,1.6-.43,2.71,2.71,0,0,1,1.94.68,2.79,2.79,0,0,1,.86,1.86h-1a2.14,2.14,0,0,0-.57-1.31,1.7,1.7,0,0,0-1.2-.42,1.82,1.82,0,0,0-1.51.72,3.2,3.2,0,0,0-.54,2v.73a3.27,3.27,0,0,0,.52,2,1.68,1.68,0,0,0,1.44.73,1.9,1.9,0,0,0,1.28-.38,2.1,2.1,0,0,0,.6-1.31Z" transform="translate(-348.25 -85.9)"/>
        <path class="c" d="M476.45,139.49H472.8v2.28h1.88a2.74,2.74,0,0,1,1.86.6,2.29,2.29,0,0,1,0,3.25,2.67,2.67,0,0,1-1.81.61H471.8v-7.56h4.67Zm-3.65,3.1v2.85h1.81a1.56,1.56,0,0,0,1.16-.4,1.39,1.39,0,0,0,.41-1.06,1.31,1.31,0,0,0-.4-1,1.56,1.56,0,0,0-1.13-.38Z" transform="translate(-348.25 -85.9)"/>
        <path class="c" d="M482.84,142.75h-3.28v2.69h3.82v.82h-4.84v-7.59h4.78v.82h-3.78v2.42h3.29Z" transform="translate(-348.25 -85.9)"/>
        <path class="c" d="M488.52,140.71a1.2,1.2,0,0,0-.44-1,1.91,1.91,0,0,0-1.24-.37,1.69,1.69,0,0,0-1.12.38,1.09,1.09,0,0,0-.45.91h-1a1.84,1.84,0,0,1,.33-1.09,2.14,2.14,0,0,1,.93-.75,3.1,3.1,0,0,1,1.31-.26,3.13,3.13,0,0,1,2,.56,1.89,1.89,0,0,1,.7,1.59,1.45,1.45,0,0,1-.32,1,2.12,2.12,0,0,1-.9.69,1.73,1.73,0,0,1,1.34,1.77,2,2,0,0,1-.76,1.62,3.16,3.16,0,0,1-2,.61,3.56,3.56,0,0,1-1.37-.27,2.23,2.23,0,0,1-1-.77,2,2,0,0,1-.34-1.17h1a1.22,1.22,0,0,0,.48,1,1.87,1.87,0,0,0,1.2.4,2.1,2.1,0,0,0,1.31-.38,1.21,1.21,0,0,0,.49-1c0-.89-.55-1.35-1.66-1.36h-.93V142H487a1.81,1.81,0,0,0,1.15-.34A1.15,1.15,0,0,0,488.52,140.71Z" transform="translate(-348.25 -85.9)"/>
        <path class="c" d="M496.8,142.71a4.84,4.84,0,0,1-.38,1.95,2.86,2.86,0,0,1-1.06,1.27,2.94,2.94,0,0,1-4.06-.86,3,3,0,0,1-.21-.4,4.4,4.4,0,0,1-.4-1.89v-.55a4.83,4.83,0,0,1,.38-1.94,2.94,2.94,0,0,1,5.35,0,4.84,4.84,0,0,1,.38,1.95Zm-1-.49a3.36,3.36,0,0,0-.54-2.07,1.92,1.92,0,0,0-2.7-.32,2,2,0,0,0-.33.32,3.38,3.38,0,0,0-.56,2v.55a3.48,3.48,0,0,0,.55,2.06,1.84,1.84,0,0,0,1.52.75,1.8,1.8,0,0,0,1.5-.71,3.46,3.46,0,0,0,.55-2Z" transform="translate(-348.25 -85.9)"/>
        <path class="c" d="M504.13,146.26h-1v-6.77h-3.74v6.77h-1v-7.59h5.76Z" transform="translate(-348.25 -85.9)"/>
        <path class="c" d="M510.1,144.28h-3.18l-.71,2h-1l2.9-7.59H509l2.9,7.59h-1Zm-2.87-.82h2.58l-1.3-3.55Z" transform="translate(-348.25 -85.9)"/>
        <path class="c" d="M518.36,143.85a2.81,2.81,0,0,1-.89,1.86,2.94,2.94,0,0,1-2,.66,2.68,2.68,0,0,1-2.16-1,3.92,3.92,0,0,1-.81-2.58v-.71a4.4,4.4,0,0,1,.38-1.86A2.85,2.85,0,0,1,514,139a3,3,0,0,1,1.6-.43,2.71,2.71,0,0,1,1.94.68,2.79,2.79,0,0,1,.86,1.86h-1a2.19,2.19,0,0,0-.56-1.31,1.74,1.74,0,0,0-1.21-.42,1.82,1.82,0,0,0-1.51.72,3.2,3.2,0,0,0-.54,2v.73a3.27,3.27,0,0,0,.52,2,1.68,1.68,0,0,0,1.44.73,1.9,1.9,0,0,0,1.28-.38,2.1,2.1,0,0,0,.6-1.31Z" transform="translate(-348.25 -85.9)"/>
        <path class="c" d="M525.55,146.26h-1v-3.51h-3.83v3.51h-1v-7.59h1v3.26h3.83v-3.26h1Z" transform="translate(-348.25 -85.9)"/>
        <path class="c" d="M533.17,142.71a4.67,4.67,0,0,1-.37,1.95,2.81,2.81,0,0,1-1.07,1.27,2.93,2.93,0,0,1-4.05-.86,3.11,3.11,0,0,1-.22-.4,4.39,4.39,0,0,1-.39-1.89v-.55a4.83,4.83,0,0,1,.38-1.94,2.94,2.94,0,0,1,5.35,0,4.67,4.67,0,0,1,.37,1.95Zm-1-.49a3.44,3.44,0,0,0-.55-2.07,1.92,1.92,0,0,0-2.7-.32,1.62,1.62,0,0,0-.32.32,3.32,3.32,0,0,0-.56,2v.55a3.41,3.41,0,0,0,.55,2.06,1.84,1.84,0,0,0,1.51.75,1.78,1.78,0,0,0,1.5-.71,3.32,3.32,0,0,0,.55-2Z" transform="translate(-348.25 -85.9)"/>
        <path class="c" d="M539.46,138.67h1v7.59h-1v-5.85l-3.74,5.85h-1v-7.59h1v5.85Zm-.28-1.89a1.32,1.32,0,0,1-.44,1,1.62,1.62,0,0,1-1.12.38,1.65,1.65,0,0,1-1.14-.39,1.34,1.34,0,0,1-.43-1h.79a.8.8,0,0,0,.2.57.89.89,0,0,0,1.15,0,.74.74,0,0,0,.2-.57Z" transform="translate(-348.25 -85.9)"/>
        <path class="c" d="M550.51,143.85a2.81,2.81,0,0,1-.89,1.86,2.89,2.89,0,0,1-2,.66,2.69,2.69,0,0,1-2.15-1,3.86,3.86,0,0,1-.81-2.58v-.71a4.11,4.11,0,0,1,.38-1.86,2.79,2.79,0,0,1,1.07-1.21,3,3,0,0,1,1.6-.43,2.71,2.71,0,0,1,1.94.68,2.8,2.8,0,0,1,.85,1.86h-1a2.2,2.2,0,0,0-.57-1.31,1.74,1.74,0,0,0-1.21-.42,1.82,1.82,0,0,0-1.51.72,3.33,3.33,0,0,0-.54,2v.73a3.33,3.33,0,0,0,.51,2,1.7,1.7,0,0,0,1.45.73,1.9,1.9,0,0,0,1.28-.38,2.1,2.1,0,0,0,.6-1.31Z" transform="translate(-348.25 -85.9)"/>
        <path class="c" d="M558.7,148.15h-1v-1.86h-5.44v1.86h-1v-2.68h.6a4,4,0,0,0,.78-1.49,8.73,8.73,0,0,0,.36-2l.17-3.25h4.54v6.78h1ZM553,145.47h3.68v-5.95h-2.58l-.11,2.23a9.41,9.41,0,0,1-.34,2.24,5.24,5.24,0,0,1-.65,1.45Z" transform="translate(-348.25 -85.9)"/>
        <path class="c" d="M564.2,142.75h-3.27v2.69h3.82v.82h-4.83v-7.59h4.76v.82h-3.75v2.42h3.29Z" transform="translate(-348.25 -85.9)"/>
        <path class="c" d="M571.71,138.67v7.59h-1v-6.77H568l-.14,3a9.63,9.63,0,0,1-.31,2.27,2.2,2.2,0,0,1-.68,1.13,1.94,1.94,0,0,1-1.21.36h-.32v-.81h.2a1.11,1.11,0,0,0,.75-.32,1.93,1.93,0,0,0,.39-.89,11.87,11.87,0,0,0,.2-1.88l.15-3.68Z" transform="translate(-348.25 -85.9)"/>
        <path class="c" d="M575.49,142.85h-.92v3.41h-1v-7.59h1V142h.79l2.65-3.35h1.24l-2.9,3.68,3.12,3.91h-1.21Z" transform="translate(-348.25 -85.9)"/>
        <path class="c" d="M585.17,138.67h1v7.59h-1v-5.85l-3.74,5.85h-1v-7.59h1v5.85Z" transform="translate(-348.25 -85.9)"/>
      </g>
    </g>
  </g>
</svg>
