<svg xmlns="http://www.w3.org/2000/svg" viewBox="0 0 250 123">
  <defs>
    <style>
      .a {
        fill: #5fc273;
      }

      .b {
        fill: #fff;
      }

      .c {
        fill: #e20000;
      }

      .d {
        fill: #e5c400;
      }
    </style>
  </defs>
  <g>
    <circle class="a" cx="149" cy="101" r="22"/>
    <path class="b" d="M564,453a6,6,0,0,0-6,6v1a1.95,1.95,0,0,0-2,2v10a1.95,1.95,0,0,0,2,2h12a1.95,1.95,0,0,0,2-2V462a1.95,1.95,0,0,0-2-2v-1A6,6,0,0,0,564,453Zm0,2a3.91,3.91,0,0,1,4,4v1h-8v-1A3.91,3.91,0,0,1,564,455Zm0,10a2,2,0,1,1-2,2A2,2,0,0,1,564,465Z" transform="translate(-415 -363)"/>
  </g>
  <circle class="c" cx="7" cy="94" r="7"/>
  <g>
    <circle class="d" cx="239" cy="11" r="11"/>
    <path class="b" d="M654,368.5a3,3,0,0,0-3,3v.5a1,1,0,0,0-1,1v5a1,1,0,0,0,1,1h6a1,1,0,0,0,1-1v-5a1,1,0,0,0-1-1v-.5A3,3,0,0,0,654,368.5Zm0,1a2,2,0,0,1,2,2v.5h-4v-.5A2,2,0,0,1,654,369.5Zm0,5a1,1,0,1,1-1,1A1,1,0,0,1,654,374.5Z" transform="translate(-415 -363)"/>
  </g>
  <path class="b" d="M422.11,453.38a3.08,3.08,0,0,0-3.11,3.05,7.79,7.79,0,0,0,1.08,3.57l.6-.35a7.45,7.45,0,0,1-1-3.22,2.42,2.42,0,0,1,4.83,0,.35.35,0,0,1-.69,0,1.73,1.73,0,0,0-3.45,0,4.11,4.11,0,0,0,2.26,3.36l.31-.61a3.45,3.45,0,0,1-1.88-2.75,1,1,0,0,1,2.07,0,1,1,0,0,0,2.07,0A3.08,3.08,0,0,0,422.11,453.38Zm-.35,2.71a3,3,0,0,0,.73,2,3.44,3.44,0,0,0,2.72,1.1v-.68a2.69,2.69,0,0,1-2.19-.86,2.43,2.43,0,0,1-.57-1.52Z" transform="translate(-415 -363)"/>
</svg>
