<svg xmlns="http://www.w3.org/2000/svg" viewBox="0 0 189 64">
  <defs>
    <style>
      .a {
        fill: #e5c400;
      }

      .b {
        fill: #5fc273;
      }

      .c {
        fill: #fff;
      }
    </style>
  </defs>
  <circle class="a" cx="15" cy="15" r="15"/>
  <circle class="b" cx="178.5" cy="53.5" r="10.5"/>
  <path class="c" d="M690.5,736.4a4.47,4.47,0,0,0-4.5,4.43,11.26,11.26,0,0,0,1.57,5.17l.86-.51a10.78,10.78,0,0,1-1.43-4.66,3.5,3.5,0,0,1,7,0,.5.5,0,0,1-1,0,2.5,2.5,0,0,0-5,0c0,3.28,3.28,4.87,3.28,4.87l.44-.88s-2.72-1.37-2.72-4a1.5,1.5,0,0,1,3,0,1.5,1.5,0,0,0,3,0A4.47,4.47,0,0,0,690.5,736.4Zm-.5,3.94a4.44,4.44,0,0,0,1.06,2.84,5,5,0,0,0,3.94,1.58v-1a3.91,3.91,0,0,1-3.18-1.24,3.47,3.47,0,0,1-.82-2.2Z" transform="translate(-512 -688)"/>
  <path class="c" d="M527,695.8l-6.22,2.76v4.15a6.48,6.48,0,1,0,12.44,0v-4.15Zm-.69,10.65-2.89-2.89,1-1,1.92,1.92,4-4,1,1Z" transform="translate(-512 -688)"/>
</svg>
