<svg id="Слой_2" data-name="Слой 2" xmlns="http://www.w3.org/2000/svg" viewBox="0 0 116 26.79"><defs><style>.cls-1{fill:#fff;}</style></defs><path class="cls-1" d="M81,22.81l.9-2a6,6,0,0,0,3,.78c1,0,1.33-.22,1.33-.58,0-1.14-5,.16-5-3.25,0-1.61,1.48-2.83,4.15-2.83a7.55,7.55,0,0,1,3.37.72l-.9,2A5,5,0,0,0,85.44,17c-1,0-1.37.28-1.37.6,0,1.18,5-.1,5,3.28,0,1.58-1.45,2.8-4.22,2.8A7.77,7.77,0,0,1,81,22.81Z" transform="translate(-0.04 0)"/><path class="cls-1" d="M104.86,18.68v4.87h-3V19.17c0-1.23-.5-1.75-1.29-1.75s-1.49.58-1.49,1.9v4.23h-3V19.17c0-1.23-.48-1.75-1.29-1.75s-1.51.58-1.51,1.9v4.23h-3V15h2.84v.9a3.38,3.38,0,0,1,2.55-1,3.11,3.11,0,0,1,2.75,1.33,3.72,3.72,0,0,1,3-1.33C103.4,14.89,104.86,16,104.86,18.68Z" transform="translate(-0.04 0)"/><path class="cls-1" d="M116,15v7c0,3.23-1.82,4.75-5,4.75a7.5,7.5,0,0,1-4.23-1.11l1.09-2.09a5,5,0,0,0,2.87.91c1.61,0,2.28-.73,2.28-2.06v-.31a3.17,3.17,0,0,1-2.53,1,4.11,4.11,0,1,1,0-8.22,3.08,3.08,0,0,1,2.67,1.18v-1Zm-3,4a1.86,1.86,0,1,0-1.85,1.85A1.85,1.85,0,0,0,113,19Z" transform="translate(-0.04 0)"/><g id="Слой_1" data-name="Слой 1"><path class="cls-1" d="M0,3H9.71c6.78,0,11.42,4,11.42,10.23S16.49,23.49,9.71,23.49H0ZM9.47,18.87c3.48,0,5.82-2.07,5.82-5.61S13,7.65,9.47,7.65H5.82V18.87Z" transform="translate(-0.04 0)"/><path class="cls-1" d="M38.72,14.69v8.8H33.54v-2c-.79,1.52-2.36,2.31-4.67,2.31-3.8,0-5.9-2.13-5.9-4.88,0-2.92,2.13-4.73,7-4.73h3.15C33,12.53,32,11.63,29.76,11.63A7.4,7.4,0,0,0,25.47,13L23.6,9.23a13.25,13.25,0,0,1,7-1.84C35.76,7.39,38.72,9.67,38.72,14.69ZM33.16,18.4V17H30.77c-1.78,0-2.43.64-2.43,1.61s.76,1.61,2.08,1.61A2.73,2.73,0,0,0,33.16,18.4Z" transform="translate(-0.04 0)"/><path class="cls-1" d="M59,14.43v9.06H53.49V15.34c0-2.28-1-3.25-2.6-3.25-1.78,0-3.15,1.11-3.15,3.74v7.66H42.18V7.65h5.29V9.38a6.79,6.79,0,0,1,5-2C56.25,7.39,59,9.52,59,14.43Z" transform="translate(-0.04 0)"/><path class="cls-1" d="M62,3C62,1.28,63.29,0,65.34,0s3.39,1.19,3.39,2.86a3.09,3.09,0,0,1-3.14,3l-.25,0C63.29,5.9,62,4.61,62,3Zm.61,4.7h5.56V23.49H62.56Z" transform="translate(-0.04 0)"/><path class="cls-1" d="M71.71,1.81h5.55V23.49H71.71Z" transform="translate(-0.04 0)"/></g></svg>