<svg xmlns="http://www.w3.org/2000/svg" viewBox="0 0 154 104">
  <defs>
    <style>
      .a {
        fill: #e20000;
      }

      .b {
        fill: #fff;
      }

      .c {
        fill: #5fc273;
      }
    </style>
  </defs>
  <g>
    <circle class="a" cx="15" cy="89" r="15"/>
    <path class="b" d="M1237,748.5a4.08,4.08,0,0,0-4.09,4.09v.68a1.38,1.38,0,0,0-1,.39,1.42,1.42,0,0,0-.38,1v6.81a1.42,1.42,0,0,0,.38,1,1.38,1.38,0,0,0,1,.39h8.18a1.38,1.38,0,0,0,1-.39,1.42,1.42,0,0,0,.38-1v-6.81a1.42,1.42,0,0,0-.38-1,1.38,1.38,0,0,0-1-.39v-.68A4.08,4.08,0,0,0,1237,748.5Zm0,1.36a2.68,2.68,0,0,1,2.73,2.73v.68h-5.46v-.68A2.68,2.68,0,0,1,1237,749.86Zm0,6.82a1.37,1.37,0,1,1-1.36,1.37A1.37,1.37,0,0,1,1237,756.68Z" transform="translate(-1222 -667)"/>
  </g>
  <circle class="c" cx="143.5" cy="10.5" r="10.5"/>
  <path class="b" d="M1365.5,672.4a4.47,4.47,0,0,0-4.5,4.43,11.26,11.26,0,0,0,1.57,5.17l.86-.51a10.78,10.78,0,0,1-1.43-4.66,3.5,3.5,0,0,1,7,0,.5.5,0,0,1-1,0,2.5,2.5,0,0,0-5,0c0,3.28,3.28,4.87,3.28,4.87l.44-.88s-2.72-1.37-2.72-4a1.5,1.5,0,0,1,3,0,1.5,1.5,0,0,0,3,0A4.47,4.47,0,0,0,1365.5,672.4Zm-.5,3.94a4.44,4.44,0,0,0,1.06,2.84,5,5,0,0,0,3.94,1.58v-1a3.91,3.91,0,0,1-3.18-1.24,3.47,3.47,0,0,1-.82-2.2Z" transform="translate(-1222 -667)"/>
</svg>
