<svg xmlns="http://www.w3.org/2000/svg" viewBox="0 0 224 139">
  <defs>
    <style>
      .a {
        fill: #5fc273;
      }

      .b {
        fill: #e5c400;
      }

      .c {
        fill: #fff;
      }

      .d {
        fill: #e20000;
      }
    </style>
  </defs>
  <circle class="a" cx="213.5" cy="61.5" r="10.5"/>
  <g>
    <circle class="b" cx="112" cy="117" r="22"/>
    <path class="c" d="M1331,465h-8a2,2,0,0,0-2,2v16a2,2,0,0,0,2,2h12a2,2,0,0,0,2-2V471Zm2,16h-8v-2h8Zm0-4h-8v-2h8Zm-3-5v-5.5l5.5,5.5Z" transform="translate(-1217 -358)"/>
  </g>
  <g>
    <circle class="d" cx="14.5" cy="14.5" r="14.5"/>
    <path class="c" d="M1231.5,365.28l-5.93,2.64v3.95a6.18,6.18,0,1,0,11.86,0v-3.95Zm-.66,10.16-2.76-2.76.93-.93,1.83,1.83,3.82-3.82.93.93Z" transform="translate(-1217 -358)"/>
  </g>
  <path class="c" d="M1430.5,414.4a4.47,4.47,0,0,0-4.5,4.43,11.26,11.26,0,0,0,1.57,5.17l.86-.51a10.78,10.78,0,0,1-1.43-4.66,3.5,3.5,0,0,1,7,0,.5.5,0,0,1-1,0,2.5,2.5,0,0,0-5,0c0,3.28,3.28,4.87,3.28,4.87l.44-.88s-2.72-1.37-2.72-4a1.5,1.5,0,0,1,3,0,1.5,1.5,0,0,0,3,0A4.47,4.47,0,0,0,1430.5,414.4Zm-.5,3.94a4.44,4.44,0,0,0,1.06,2.84,5,5,0,0,0,3.94,1.58v-1a3.91,3.91,0,0,1-3.18-1.24,3.47,3.47,0,0,1-.82-2.2Z" transform="translate(-1217 -358)"/>
</svg>
