<?xml version="1.0" encoding="utf-8"?>
<svg xmlns="http://www.w3.org/2000/svg" viewBox="0 0 48 48" width="50" height="50">
  <path d="M24.048828 2 A 1.50015 1.50015 0 0 0 22.998047 2.3847656C22.998047 2.3847656 15.490168 9 6.5 9 A 1.50015 1.50015 0 0 0 5 10.5L5 22.759766C5 29.437814 8.0894135 40.426402 23.417969 46.882812 A 1.50015 1.50015 0 0 0 24.582031 46.882812C39.910586 40.426403 43 29.437814 43 22.759766L43 10.5 A 1.50015 1.50015 0 0 0 41.5 9C32.509832 9 25.001953 2.3847656 25.001953 2.3847656 A 1.50015 1.50015 0 0 0 24.048828 2 z M 24 5.4277344C26.062966 7.0863651 32.111257 11.337189 40 11.875L40 22.759766C40 28.502023 37.793444 37.765684 24 43.826172C10.206556 37.765684 8 28.502023 8 22.759766L8 11.875C15.888743 11.337189 21.937034 7.0863651 24 5.4277344 z M 24 14C18.48 14 14 18.48 14 24C14 29.52 18.48 34 24 34C29.52 34 34 29.52 34 24C34 18.48 29.52 14 24 14 z M 24 17C24.83 17 25.5 17.67 25.5 18.5L25.5 22.5L28.5 22.5C29.33 22.5 30 23.17 30 24C30 24.83 29.33 25.5 28.5 25.5L24 25.5C23.17 25.5 22.5 24.83 22.5 24L22.5 18.5C22.5 17.67 23.17 17 24 17 z" fill="#C600E5" />
</svg>