<svg xmlns="http://www.w3.org/2000/svg" viewBox="0 0 453.77 506.29">
  <defs>
    <style>
      .a {
        fill: #f8f8f8;
      }

      .b {
        fill: #f2f2f2;
      }

      .c {
        fill: #e6e6e6;
      }

      .d {
        fill: #fff;
      }

      .e {
        fill: #5fc273;
      }

      .f {
        fill: #a0616a;
      }

      .g {
        fill: #3f3d56;
      }

      .h {
        fill: #2f2e41;
      }

      .i {
        fill: #ffb8b8;
      }

      .j {
        fill: #ccc;
      }
    </style>
  </defs>
  <path class="a" d="M378.71,726.54c-38.66-63-33-145.95-12.33-221.25C387,429.65,422.69,362,477.33,337c54.65-25.32,128.29-8.33,185.6,26s98,85.3,121.62,151.28,30.32,146.61-6.33,209.25c-36.65,62.31-117,106.62-197.93,107.62C499,831.83,417,789.18,378.71,726.54Z" transform="translate(-350.23 -324.88)"/>
  <g>
    <path class="b" d="M758.32,410.61c-3.08,33.95-11.86,69.74-25.62,104.27-17,42.71-40.28,80.32-67.25,108.78l-1.5-1.3c26.84-28.32,50-65.77,66.95-108.3,15.31-38.44,24.43-78.43,26.36-115.65l1.91.32Q758.87,404.63,758.32,410.61Z" transform="translate(-350.23 -324.88)"/>
    <path class="b" d="M368.05,477.25l1.73.2c7.7-32.58,22.62-55.15,43.16-65.28,26.1-12.87,58.38-4.23,90.89,24.34,32.67,28.7,61.59,74.05,81.44,127.68l1.68-.83c-19.94-53.86-49-99.43-81.87-128.29-33-29-66-37.72-92.74-24.51C391.21,421,375.9,444,368.05,477.25Z" transform="translate(-350.23 -324.88)"/>
    <path class="b" d="M558.55,519.69c4.52,10.24,8.81,20.86,12.77,31.54,22.76,61.51,34.29,124.32,33.35,181.66l1.78-.21c.94-57.55-10.63-120.58-33.46-182.27-4-10.72-8.27-21.36-12.8-31.64Z" transform="translate(-350.23 -324.88)"/>
    <path class="b" d="M559.4,562c4.52,10.24,8.81,20.86,12.77,31.54,22.76,61.51,34.29,124.32,33.35,181.66l1.78-.21c.94-57.55-10.62-120.57-33.46-182.27-4-10.72-8.27-21.36-12.8-31.64Z" transform="translate(-350.23 -324.88)"/>
    <path class="b" d="M770.59,607.75C732.7,668,686.73,711.1,641.15,729l-.92-1.69c45.26-17.8,91-60.65,128.68-120.66Z" transform="translate(-350.23 -324.88)"/>
    <path class="b" d="M757.4,452.88c-3.08,33.94-11.86,69.73-25.62,104.26-17,42.71-40.28,80.33-67.25,108.78l-1.5-1.3c26.85-28.32,50-65.77,67-108.3,15.31-38.43,24.43-78.43,26.36-115.65l1.91.32Q757.95,446.89,757.4,452.88Z" transform="translate(-350.23 -324.88)"/>
    <path class="c" d="M397,549H372.18a3.54,3.54,0,0,1-2.77-1.33,3.43,3.43,0,0,1-.67-2.93,67.5,67.5,0,0,0-.44-31.69,3.52,3.52,0,0,1,1.37-3.7c12.79-9.19,22.85-8.93,29.92.79a3.6,3.6,0,0,1,.62,1.5,110.41,110.41,0,0,1,.31,34.33A3.51,3.51,0,0,1,397,549Z" transform="translate(-350.23 -324.88)"/>
    <path class="d" d="M389.33,524.12h-8.55a1.78,1.78,0,1,1,0-3.56h8.55a1.78,1.78,0,1,1,0,3.56Z" transform="translate(-350.23 -324.88)"/>
    <path class="d" d="M389.33,530.38h-8.55a1.79,1.79,0,1,1,0-3.57h8.55a1.79,1.79,0,0,1,0,3.57Z" transform="translate(-350.23 -324.88)"/>
    <path class="d" d="M389.33,536.63h-8.55a1.79,1.79,0,1,1,0-3.57h8.55a1.79,1.79,0,0,1,0,3.57Z" transform="translate(-350.23 -324.88)"/>
    <path class="c" d="M783.85,651H759a3.54,3.54,0,0,1-2.76-1.33,3.47,3.47,0,0,1-.68-2.93,67.63,67.63,0,0,0-.43-31.69,3.52,3.52,0,0,1,1.37-3.7c12.78-9.2,22.85-8.93,29.92.79a3.6,3.6,0,0,1,.62,1.5,110.72,110.72,0,0,1,.31,34.33A3.52,3.52,0,0,1,783.85,651Z" transform="translate(-350.23 -324.88)"/>
    <path class="d" d="M776.14,626.12h-8.55a1.78,1.78,0,0,1,0-3.56h8.55a1.78,1.78,0,0,1,0,3.56Z" transform="translate(-350.23 -324.88)"/>
    <path class="d" d="M776.14,632.38h-8.55a1.79,1.79,0,0,1,0-3.57h8.55a1.79,1.79,0,0,1,0,3.57Z" transform="translate(-350.23 -324.88)"/>
    <path class="d" d="M776.14,638.63h-8.55a1.79,1.79,0,0,1,0-3.57h8.55a1.79,1.79,0,0,1,0,3.57Z" transform="translate(-350.23 -324.88)"/>
    <path class="b" d="M440.83,746.11l-1.55-21.57a69.78,69.78,0,0,0-32.75-7.34c16,12.34,14.69,37,25.75,53.9a42,42,0,0,0,31.29,18.55l13.29,7.64a70.3,70.3,0,0,0-16.37-56.55,67.92,67.92,0,0,0-12.8-11.25C444.79,737.83,440.83,746.11,440.83,746.11Z" transform="translate(-350.23 -324.88)"/>
    <path class="b" d="M722,749.24l1.55-21.57a69.67,69.67,0,0,1,32.76-7.34c-16,12.34-14.7,37-25.76,53.9a41.92,41.92,0,0,1-31.29,18.54l-13.29,7.65a70.36,70.36,0,0,1,16.37-56.55,67.88,67.88,0,0,1,12.8-11.25C718,741,722,749.24,722,749.24Z" transform="translate(-350.23 -324.88)"/>
    <circle class="e" cx="224.14" cy="166.14" r="14.85"/>
    <path class="d" d="M582,484.83a1.21,1.21,0,0,0-1.66,0,49.08,49.08,0,0,0-8.43,8.61L570.1,490c-.69-1.34-2.71-.16-2,1.18l2.63,5.1a1.19,1.19,0,0,0,1.63.4,1.27,1.27,0,0,0,.4-.4,47.21,47.21,0,0,1,9.25-9.74A1.19,1.19,0,0,0,582,484.83Z" transform="translate(-350.23 -324.88)"/>
    <path class="f" d="M507.91,533.13,485.51,498l25.94-13.89,6.81,26.84,48,25.91a10.37,10.37,0,1,1-5.9,14.11Z" transform="translate(-350.23 -324.88)"/>
    <path class="g" d="M469.15,455.77c-7,10.34,18,47.89,18,47.89,1.22-2.62,12.87,26.87,14.82,25.12,5.54-4.95,14.22-18.74,19-19.35,2.76-.35-6.39-19.92-6.39-19.92S510.4,478,504.72,463.2a26.49,26.49,0,0,0-19.25-16.83S476.19,445.44,469.15,455.77Z" transform="translate(-350.23 -324.88)"/>
    <polygon class="f" points="119.27 467.52 129.9 467.52 134.96 426.49 119.26 426.49 119.27 467.52"/>
    <path class="h" d="M466.78,788.92h3l11.68-4.75,6.27,4.75h0a13.35,13.35,0,0,1,13.35,13.35v.44h-34.3Z" transform="translate(-350.23 -324.88)"/>
    <polygon class="f" points="168.68 467.52 179.32 467.52 184.38 426.49 168.68 426.49 168.68 467.52"/>
    <path class="h" d="M516.2,788.92h3l11.69-4.75,6.26,4.75h0a13.35,13.35,0,0,1,13.34,13.35v.44H516.2Z" transform="translate(-350.23 -324.88)"/>
    <path class="h" d="M523.51,568.1l-69.18,1.73c-13.14,7.14-13.34,22.58-9,40.92,0,0-1.46,10.9,1.45,13.81s4.36,2.91,2.91,8,6.22,13.4,5.29,14.33-3.11,6-3.11,6l7.26,41.42s5.09,71.95,6.54,73.4,2.91,0,1.46,3.63-2.91,2.18-1.46,3.64a52.53,52.53,0,0,1,3.64,4.36h17.57s1.32-7.27,1.32-8,1.45-5.08,1.45-5.81-1.28-2-1.28-2a25.06,25.06,0,0,1-.9-4.53c0-1.45-4.36-57.41-4.36-57.41l8.72-72.67,21.08,71.22s0,62.49,1.45,64,1.46.72.73,3.63-3.63,2.18-1.45,4.36,2.9-1.45,2.18,2.18l-.73,3.63,21.8.32s2.91-6.13,1.45-8.31-1.36-1.59.41-5.15,2.5-4.3,1.77-5-.72-4.6-.72-4.6l-3.64-69.53s-.72-73.39-.72-75.57a7.16,7.16,0,0,1,.6-3.27v-3l-2.78-10.49Z" transform="translate(-350.23 -324.88)"/>
    <circle class="f" cx="131.73" cy="77.87" r="21.5"/>
    <path class="g" d="M492.7,438.45c4.63,2.75,7.4,7.81,9,13A122.45,122.45,0,0,1,507,480.75l1.68,29.81,20.8,63.49c-18,15.25-85.79,3.46-85.79,3.46s-2.08-.69,0-2.77,4.1-.24,2-2.32-.64.24.05-1.84,0-.69-.69-1.39,5.36-6.93,5.36-6.93l-5.54-36.44-6.94-73.5c8.32-10.41,25.06-16.54,25.06-16.54L467.3,428l21.62,1.73Z" transform="translate(-350.23 -324.88)"/>
    <path class="h" d="M499.67,391.32a10,10,0,0,1,3.54,5,69,69,0,0,0,.05-9.75c-.25-2.28-1.86-2.8-3.72-3.39-1.68-.54-3.58-1.15-4.09-3.36-6.76-6.58-18.52-6.24-26.57-4-4.43,1.26-7,2.88-7.21,3.83l-.05.2-.18.09c-3.41,1.7-4.08,7.1-4,11.32.08,8,2.83,17,4.37,17.72.09,0,.11,0,.14,0h0c2.33-1.86,5.17.15,6.42,1.23a22.36,22.36,0,0,1,20-19,35.8,35.8,0,0,0,4.83-.81,10.18,10.18,0,0,1,2.46-.32A7,7,0,0,1,499.67,391.32Z" transform="translate(-350.23 -324.88)"/>
    <path class="i" d="M633.12,585.23l41.35-42,10.9-33.59-17.54-7.09c-8.68,8.76-17.62,35.58-17.62,35.58L622,576a6.5,6.5,0,0,0-.68.28,8.36,8.36,0,1,0,11.81,8.93Z" transform="translate(-350.23 -324.88)"/>
    <path class="e" d="M663.05,506.4l22.17,6.42.08,0c8.15-1.58,14.6-15.12,18.57-26.21a15.3,15.3,0,0,0-8.29-19.19h0a15.34,15.34,0,0,0-16,2.44l-11.06,9.52Z" transform="translate(-350.23 -324.88)"/>
    <polygon class="i" points="293.85 466.27 281.93 466.27 276.26 420.28 293.86 420.28 293.85 466.27"/>
    <path class="h" d="M647.12,787.26h-3.35l-13.11-5.33-7,5.32h0a15,15,0,0,0-15,15v.49h38.44Z" transform="translate(-350.23 -324.88)"/>
    <polygon class="i" points="346.76 466.27 334.84 466.27 329.17 420.28 346.76 420.28 346.76 466.27"/>
    <path class="h" d="M700,787.26h-3.36l-13.1-5.33-7,5.32h0a15,15,0,0,0-15,15v.49H700Z" transform="translate(-350.23 -324.88)"/>
    <path class="h" d="M715.17,593.05s1.39,16.71-2.09,32.72-3.48,61.1-3.48,61.1l-7.66,87.87-23-2.09-6.26-146.88-22.28,49.42,2.09,7-2.78,1.74s2.08,13.57.69,13.57-4.87,2.09-4.87,2.09l2.78,71.7-23.67-.69-8.35-100.94,9-57.78.69-11.14,3.14.13,1.59-4.66,2.93-8Z" transform="translate(-350.23 -324.88)"/>
    <path class="e" d="M716.37,596.56l.13-.18c6.62-9.27-3.34-31.56-4.84-34.8l6.33-2.05-1.43-12.12-.68-5.4,4.84-4.84,0-.12,2.78-24.37,4.05-16.18a35.52,35.52,0,0,0-10.08-34.43l-9.36-8.82-11.38-16.83H678.41l-6.29,11.88a26.72,26.72,0,0,0-20.68,27.29l1.43,31.15-5.58,38.79v7l-6.28,7,1.37,6.86-4.77,2.05-2.11,9.84c-.88,1.15-6.64,8.84-6.64,10.94,0,.32.23.62.73,1,3.93,2.66,25.64,8.08,35.25,4.24,10.23-4.1,50.92,2,51.33,2.11Z" transform="translate(-350.23 -324.88)"/>
    <circle class="i" cx="334.99" cy="81.82" r="24.29"/>
    <path class="h" d="M682.89,431.38a65.89,65.89,0,0,0,11.21-1.08c3.66-.84,11.75-7.09,13.95-10.78h0c1.64-2.75,2.62-7,3.16-10.07a29.56,29.56,0,0,0-5.77-23.3,9.3,9.3,0,0,0-3.85-3.12l-.42-.13a11.54,11.54,0,0,1-5.82-3.39,9.77,9.77,0,0,0-1-1,14.13,14.13,0,0,0-6-2.81c-3.54-.85-8.61.21-15,3.16-3.24,1.49-6.84,1.07-9.61.55a.9.9,0,0,0-.84.31,6.36,6.36,0,0,1-4.28,1.84c-1,.07-2,1.46-3.18,3.27-.28.41-.6.89-.83,1.18l0-.55-.54.63a7.73,7.73,0,0,0,3.81,12.49,14.72,14.72,0,0,0,3,.4c.62,0,1.26.09,1.88.18a11.65,11.65,0,0,1,8.85,7.33,3.05,3.05,0,0,0,3.94,1.74,3.29,3.29,0,0,0,.69-.38,5,5,0,0,1,4.56-1,3.36,3.36,0,0,1,1.52,1.64,4.44,4.44,0,0,0,1.7,1.89c2.53,1.22,2.85,6.91,2.08,11.69-.75,4.6-2.37,8-4,8.16-1.21.16-1.35.25-1.43.47l-.07.19.14.18A5,5,0,0,0,682.89,431.38Z" transform="translate(-350.23 -324.88)"/>
    <path class="i" d="M662.73,509l-11.67-14.88c-11.89,3.28-33,22.09-33,22.09L574.72,535a8.34,8.34,0,1,0,5.08,13.53l56.77-15.84Z" transform="translate(-350.23 -324.88)"/>
    <path class="e" d="M659.94,512.4l18.42-20.53,1-14.56a15.34,15.34,0,0,0-7.62-14.3h0a15.33,15.33,0,0,0-20.35,4.82c-6.51,9.82-13.51,23.08-9.91,30.56l0,.07Z" transform="translate(-350.23 -324.88)"/>
    <path class="c" d="M490.14,589.59l-47.89-24.52c-3.4-1.74-4.53-6.37-2.51-10.31l31.22-61c2-3.94,6.43-5.73,9.84-4l47.88,24.53c3.4,1.74,4.53,6.37,2.51,10.31l-31.22,61C498,589.55,493.54,591.34,490.14,589.59Z" transform="translate(-350.23 -324.88)"/>
    <path class="d" d="M482,578.32l-32.53-16.66c-3.19-1.63-4.24-6-2.35-9.66L473,501.36c1.9-3.69,6-5.37,9.22-3.74l39.29,20.13c3.19,1.63,4.25,6,2.36,9.66l-14.1,27.51C501.35,571.37,496.16,585.6,482,578.32Z" transform="translate(-350.23 -324.88)"/>
    <path class="e" d="M498,550.66l-28.82-14.75a1.81,1.81,0,0,1-.42-2.52,1.83,1.83,0,0,1,2.05-.66l28.81,14.76a1.8,1.8,0,0,1-1.62,3.17Z" transform="translate(-350.23 -324.88)"/>
    <path class="e" d="M472.59,545.55,466,542.18a1.81,1.81,0,0,1,1.63-3.18l6.57,3.37a1.8,1.8,0,0,1-1.62,3.18Z" transform="translate(-350.23 -324.88)"/>
    <path class="e" d="M481,557.78l-18.22-9.33a1.8,1.8,0,0,1,1.63-3.17l18.22,9.33a1.8,1.8,0,0,1-1.63,3.17Z" transform="translate(-350.23 -324.88)"/>
    <path class="e" d="M509.44,528.4l-28.81-14.76a1.8,1.8,0,0,1,1.62-3.17l28.82,14.76a1.8,1.8,0,0,1-1.63,3.17Z" transform="translate(-350.23 -324.88)"/>
    <path class="e" d="M484,523.28l-6.57-3.37a1.8,1.8,0,0,1,1.62-3.17l6.58,3.37a1.8,1.8,0,0,1-1.63,3.17Z" transform="translate(-350.23 -324.88)"/>
    <path class="e" d="M492.43,535.52l-18.23-9.33a1.81,1.81,0,0,1,1.63-3.18l18.22,9.33a1.8,1.8,0,0,1-1.62,3.18Z" transform="translate(-350.23 -324.88)"/>
    <path class="f" d="M450.46,536.52l-10.82-40.27,28.91-5.47L467,518.42l38,39.11a10.37,10.37,0,1,1-9.86,11.69Z" transform="translate(-350.23 -324.88)"/>
    <path class="g" d="M436.68,451.1c-9.81,7.75,2.78,51.08,2.78,51.08,2-2.14,4.22,29.48,6.6,28.4,6.78-3.06,19.19-13.61,24-12.75,2.73.49-.13-20.92-.13-20.92s-.53-12.27-1.52-28.06A26.5,26.5,0,0,0,455.07,447S446.49,443.36,436.68,451.1Z" transform="translate(-350.23 -324.88)"/>
    <path class="c" d="M599.94,625.91l-26.13-12.34a4.1,4.1,0,0,1-2.24-2.77,4,4,0,0,1,.74-3.41,78.69,78.69,0,0,0,15.18-33,4.06,4.06,0,0,1,4-3.28c13.33,0,23.29,4.91,29.6,14.46a4.14,4.14,0,0,1,.54,3.42,128.62,128.62,0,0,1-16.5,35.5A4.1,4.1,0,0,1,599.94,625.91Z" transform="translate(-350.23 -324.88)"/>
    <path class="d" d="M607.63,608.6l-20-9.43a2.07,2.07,0,0,1,1.77-3.75h0l20,9.43a2.07,2.07,0,1,1-1.77,3.75Z" transform="translate(-350.23 -324.88)"/>
    <path class="d" d="M610.73,602l-20-9.43a2.07,2.07,0,0,1,1.77-3.75h0l20,9.43a2.07,2.07,0,1,1-1.77,3.75Z" transform="translate(-350.23 -324.88)"/>
    <ellipse class="j" cx="384.82" cy="500.36" rx="6.92" ry="7.97" transform="translate(-595.16 218.71) rotate(-56.36)"/>
    <ellipse class="j" cx="770.8" cy="606.32" rx="6.92" ry="7.97" transform="translate(-511.19 587.34) rotate(-56.36)"/>
  </g>
</svg>
